<?xml version="1.0" encoding="utf-8"?>
<!-- Generator: Adobe Illustrator 24.3.0, SVG Export Plug-In . SVG Version: 6.00 Build 0)  -->
<svg version="1.1" id="Layer_1" xmlns="http://www.w3.org/2000/svg" xmlns:xlink="http://www.w3.org/1999/xlink" x="0px" y="0px"
	 viewBox="0 0 800 600" style="enable-background:new 0 0 800 600;" xml:space="preserve">
<style type="text/css">
	.st0{fill:#00AEA8;}
	.st1{fill:#DF4118;}
	.st2{fill:#60BE98;}
	.st3{fill:#FFC100;}
	.st4{fill:#189AA8;}
	.st5{fill:#FF4062;}
	.st6{fill:#F88600;}
	.st7{fill:#007792;}
	.st8{fill:#003A48;}
</style>
<g>
	<circle class="st0" cx="442.14" cy="429.99" r="37.51"/>
	<circle class="st1" cx="502.21" cy="327.93" r="37.51"/>
	<circle class="st2" cx="256.32" cy="380.26" r="37.51"/>
	<circle class="st3" cx="414.99" cy="233.97" r="32.01"/>
	<circle class="st4" cx="294.55" cy="214.26" r="27.1"/>
	<circle class="st5" cx="285.12" cy="303.38" r="17.62"/>
	<circle class="st1" cx="430.3" cy="363.88" r="11.02"/>
	<circle class="st6" cx="351.03" cy="261.43" r="12.94"/>
	<circle class="st7" cx="343.25" cy="406.2" r="16.09"/>
	<circle class="st2" cx="426" cy="291.91" r="16.09"/>
	<g>
		<path class="st8" d="M318.89,335.78c0-7.44,1.14-13.96,3.43-19.54c2.29-5.58,5.29-10.23,9.01-13.96c3.72-3.72,8-6.54,12.84-8.45
			c4.84-1.92,9.81-2.87,14.91-2.87c11.91,0,21.32,3.64,28.23,10.92c6.91,7.28,10.37,18,10.37,32.14c0,1.38-0.05,2.9-0.16,4.55
			c-0.11,1.65-0.21,3.11-0.32,4.39h-53.91c0.53,4.89,2.82,8.77,6.86,11.64c4.04,2.87,9.46,4.31,16.27,4.31
			c4.36,0,8.64-0.4,12.84-1.2c4.2-0.8,7.63-1.78,10.29-2.95l3.19,19.3c-1.28,0.64-2.98,1.28-5.1,1.92c-2.13,0.64-4.49,1.19-7.1,1.67
			c-2.61,0.48-5.4,0.88-8.37,1.2c-2.98,0.32-5.96,0.48-8.93,0.48c-7.55,0-14.11-1.12-19.7-3.35c-5.58-2.23-10.21-5.29-13.88-9.17
			c-3.67-3.88-6.38-8.48-8.13-13.8C319.76,347.69,318.89,341.95,318.89,335.78z M374.71,326.69c-0.11-2.02-0.45-3.99-1.04-5.9
			c-0.59-1.91-1.49-3.61-2.71-5.1c-1.22-1.49-2.77-2.71-4.63-3.67c-1.86-0.96-4.17-1.43-6.94-1.43c-2.66,0-4.94,0.45-6.86,1.36
			c-1.91,0.9-3.51,2.1-4.78,3.59c-1.28,1.49-2.26,3.22-2.95,5.18c-0.69,1.97-1.2,3.96-1.52,5.98H374.71z"/>
	</g>
</g>
</svg>
