<svg id="Layer_1" data-name="Layer 1" xmlns="http://www.w3.org/2000/svg" viewBox="0 0 245.48 214.45"><defs><style>.cls-1{fill:#00aea8;}.cls-2{fill:#df4118;}.cls-3{fill:#60be98;}.cls-4{fill:#ffc100;}.cls-5{fill:#189aa8;}.cls-6{fill:#ff4062;}.cls-7{fill:#f88600;}.cls-8{fill:#007792;}.cls-9{fill:#003a48;}</style></defs><circle class="cls-1" cx="170.83" cy="185.75" r="28.69"/><circle class="cls-2" cx="216.78" cy="107.69" r="28.69"/><circle class="cls-3" cx="28.7" cy="147.71" r="28.69"/><circle class="cls-4" cx="150.07" cy="35.81" r="24.49"/><circle class="cls-5" cx="57.94" cy="20.74" r="20.73"/><circle class="cls-6" cx="50.73" cy="88.91" r="13.48"/><circle class="cls-2" cx="161.78" cy="135.18" r="8.43"/><circle class="cls-7" cx="101.14" cy="56.82" r="9.9"/><circle class="cls-8" cx="95.19" cy="167.56" r="12.3"/><circle class="cls-3" cx="158.49" cy="80.13" r="12.3"/><path class="cls-9" d="M382.9,307.63a39.22,39.22,0,0,1,2.62-14.95A32.07,32.07,0,0,1,392.41,282a28.56,28.56,0,0,1,9.83-6.47,30.81,30.81,0,0,1,11.4-2.2q13.67,0,21.6,8.36t7.93,24.58c0,1.06-.05,2.22-.12,3.48s-.17,2.38-.25,3.36H401.56a12.08,12.08,0,0,0,5.25,8.9q4.63,3.3,12.45,3.3a52.62,52.62,0,0,0,9.82-.92,36.64,36.64,0,0,0,7.86-2.26l2.44,14.77a25.75,25.75,0,0,1-3.9,1.46,52,52,0,0,1-5.43,1.28c-2,.37-4.13.67-6.4.92a65.3,65.3,0,0,1-6.84.36,40.38,40.38,0,0,1-15.06-2.56,29.42,29.42,0,0,1-10.62-7,27.79,27.79,0,0,1-6.22-10.55A41.83,41.83,0,0,1,382.9,307.63Zm42.7-7a19,19,0,0,0-.79-4.51,11.24,11.24,0,0,0-2.08-3.91,11,11,0,0,0-3.54-2.8,11.52,11.52,0,0,0-5.3-1.1,12.2,12.2,0,0,0-5.25,1,10.87,10.87,0,0,0-3.66,2.74,12.4,12.4,0,0,0-2.26,4,26.4,26.4,0,0,0-1.16,4.57Z" transform="translate(-306.34 -193.94)"/></svg>