<svg id="Layer_1" data-name="Layer 1" xmlns="http://www.w3.org/2000/svg" viewBox="0 0 1118.84 977.42"><defs><style>.cls-1{fill:#00aea8;}.cls-2{fill:#df4118;}.cls-3{fill:#60be98;}.cls-4{fill:#ffc100;}.cls-5{fill:#189aa8;}.cls-6{fill:#ff4062;}.cls-7{fill:#f88600;}.cls-8{fill:#007792;}.cls-9{fill:#003a48;}</style></defs><circle class="cls-1" cx="778.62" cy="846.62" r="130.76"/><circle class="cls-2" cx="988.05" cy="490.81" r="130.76"/><circle class="cls-3" cx="130.8" cy="673.23" r="130.76"/><circle class="cls-4" cx="683.98" cy="163.22" r="111.61"/><circle class="cls-5" cx="264.06" cy="94.51" r="94.48"/><circle class="cls-6" cx="231.2" cy="405.22" r="61.42"/><circle class="cls-2" cx="737.36" cy="616.13" r="38.42"/><circle class="cls-7" cx="460.99" cy="258.97" r="45.12"/><circle class="cls-8" cx="433.86" cy="763.7" r="56.08"/><circle class="cls-3" cx="722.34" cy="365.21" r="56.08"/><path class="cls-9" d="M675,668.44q0-38.91,12-68.11t31.42-48.66a130.78,130.78,0,0,1,44.76-29.47,140.23,140.23,0,0,1,52-10q62.28,0,98.43,38.09t36.14,112q0,7.24-.56,15.85T948,693.46H760.08q2.79,25.59,23.92,40.6t56.71,15a239.4,239.4,0,0,0,44.76-4.17q22-4.17,35.87-10.29l11.12,67.28a114.5,114.5,0,0,1-17.79,6.68,232.54,232.54,0,0,1-24.75,5.83q-13.63,2.51-29.19,4.17a290.06,290.06,0,0,1-31.14,1.67q-39.48,0-68.67-11.67t-48.38-32a126.86,126.86,0,0,1-28.36-48.09A190.74,190.74,0,0,1,675,668.44Zm194.62-31.69A86.07,86.07,0,0,0,866,616.17a51.53,51.53,0,0,0-9.45-17.79,50.51,50.51,0,0,0-16.12-12.79q-9.75-5-24.19-5-13.9,0-23.91,4.72a49.5,49.5,0,0,0-16.69,12.51,56.25,56.25,0,0,0-10.28,18.08,118.49,118.49,0,0,0-5.29,20.85Z" transform="translate(-326.09 -150.28)"/></svg>