<?xml version="1.0" encoding="UTF-8" standalone="no"?>
<!DOCTYPE svg PUBLIC "-//W3C//DTD SVG 1.1//EN" "http://www.w3.org/Graphics/SVG/1.1/DTD/svg11.dtd">
<!-- Created with Vectornator (http://vectornator.io/) -->
<svg height="100%" stroke-miterlimit="10" style="fill-rule:nonzero;clip-rule:evenodd;stroke-linecap:round;stroke-linejoin:round;" version="1.1" viewBox="0 0 1008 720" width="100%" xml:space="preserve" xmlns="http://www.w3.org/2000/svg" xmlns:vectornator="http://vectornator.io" xmlns:xlink="http://www.w3.org/1999/xlink">
<defs/>
<clipPath id="ArtboardFrame">
<rect height="720" width="1008" x="0" y="0"/>
</clipPath>
<g clip-path="url(#ArtboardFrame)" id="Layer-1" vectornator:layerName="Layer 1">
<path d="M0.0874847 79.788C0.0874847 79.788 227.585-53.7359 502.398 26.3262C771.513 104.728 1007.88 36.8996 1007.88 36.8996L1007.98 719.981L-0.0275164 719.839L0.0874847 79.788Z" fill="#ffffff" fill-rule="nonzero" opacity="1" stroke="none"/>
<path d="M78.5101 160.59C71.2455 160.685 65.3817 164.641 62.2564 172.454C58.5981 181.6 65.6282 196.206 76.5883 196.206C100.957 196.206 103.982 163.723 81.7055 160.783C80.6146 160.639 79.5479 160.576 78.5101 160.59ZM155.211 170.407C150.643 170.588 146.719 172.55 143.336 175.934C128.777 190.493 140.787 215.103 161.147 211.97C187.408 207.93 182.581 169.326 155.211 170.407ZM115.866 200.656C115.284 200.674 114.681 200.756 114.058 200.913C102.61 203.814 107.414 220.13 119.584 217.087C128.463 214.868 124.597 200.378 115.866 200.656ZM164.995 218.41C164.609 218.426 164.213 218.464 163.808 218.524C149.321 220.669 152.431 241.214 166.06 239.611C179.341 238.048 176.932 217.923 164.995 218.41ZM74.0184 224.915C73.1528 224.873 72.2331 224.92 71.2627 225.074C56.4446 227.421 59.4765 249.352 74.9508 248.007C88.1058 246.863 87.0015 225.548 74.0184 224.915ZM120.93 228.099C116.05 228.18 110.942 229.786 106.071 233.265C89.1911 245.323 92.4237 271.245 107.299 282.402C117.025 289.696 132.6 286.322 143.131 282.811C142.322 278.769 141.08 274.237 141.08 270.117C134.74 273.287 109.094 275.107 111.188 262.543C128.591 262.543 128.593 262.543 145.996 262.543C147.147 259.091 146.413 255.028 145.996 251.486C144.367 237.633 133.4 227.891 120.93 228.099ZM215.723 228.266C203.504 228.151 190.016 236.718 190.016 249.849C190.016 283.598 236.928 287.092 239.156 254.352C239.888 243.602 234.16 233.927 223.797 229.782C221.293 228.781 218.543 228.292 215.723 228.266ZM121.191 240.896C122.937 240.793 124.709 241.254 126.339 242.476C129.829 245.094 129.906 247.643 131.255 251.691C121.12 251.691 121.118 251.691 110.983 251.691C110.983 246.587 115.956 241.204 121.191 240.896ZM53.6595 262.517C41.018 262.857 28.5026 272.024 29.495 289.16C30.0755 299.185 36.0042 306.175 45.6729 310.042C63.4361 317.148 80.9323 300.403 78.2258 282.811C76.0681 268.786 64.8138 262.216 53.6595 262.517ZM167.595 268.802C167.361 268.815 167.12 268.844 166.878 268.889C156.845 270.733 159.614 283.956 169.953 283.016C178.277 282.259 174.855 268.375 167.595 268.802ZM111.7 292.974C111.335 292.977 110.958 293.003 110.574 293.049C95.2626 294.917 98.0077 315.577 112.416 314.136C125.039 312.874 123.013 292.861 111.7 292.974ZM173.228 294.687C156.055 294.687 147.104 315.173 152.751 329.291C156.886 339.627 167.482 344.845 177.935 343.827C209.789 340.726 205.545 294.687 173.228 294.687Z" fill="#737373" fill-rule="nonzero" opacity="0" stroke="none"/>
</g>
</svg>
