<svg xmlns="http://www.w3.org/2000/svg" xmlns:xlink="http://www.w3.org/1999/xlink" width="1937.766" height="1099.999" viewBox="0 0 1937.766 1099.999">
  <defs>
    <filter id="路径_4" x="0" y="0" width="1937.766" height="1099.999" filterUnits="userSpaceOnUse">
      <feOffset dy="3" input="SourceAlpha"/>
      <feGaussianBlur stdDeviation="3" result="blur"/>
      <feFlood flood-opacity="0"/>
      <feComposite operator="in" in2="blur"/>
      <feComposite in="SourceGraphic"/>
    </filter>
  </defs>
  <g id="footer_bg_" transform="translate(9.5 -4348.278)">
    <g transform="matrix(1, 0, 0, 1, -9.5, 4348.28)" filter="url(#路径_4)">
      <path id="路径_4-2" data-name="路径 4" d="M8728,4801.875s135.974-209.936,349.242-49.985,239.927-66.646,373.22,0,113.3,189.942,316.57,126.628,209.938-10,249.925,33.323,233.262,96.637,239.927-63.314,249.925-106.634,256.589-16.662,133.293,46.652,133.293,46.652v894.259H8728Z" transform="translate(-8718.5 -4685.28)" fill="#f9f9f9" stroke="rgba(137,144,151,0)" stroke-width="1"/>
    </g>
    <g id="组_7" data-name="组 7">
      <path id="路径_5" data-name="路径 5" d="M95,0A95,95,0,1,1,0,95,95,95,0,0,1,95,0Z" transform="translate(111 4482)" fill="rgba(210,210,210,0.25)"/>
      <circle id="椭圆_35" data-name="椭圆 35" cx="95" cy="95" r="95" transform="translate(1694 4667)" fill="rgba(210,210,210,0.25)"/>
      <circle id="椭圆_36" data-name="椭圆 36" cx="17" cy="17" r="17" transform="translate(357 4512)" fill="rgba(210,210,210,0.25)"/>
      <circle id="椭圆_37" data-name="椭圆 37" cx="45" cy="45" r="45" transform="translate(374 4622)" fill="rgba(210,210,210,0.25)"/>
      <circle id="椭圆_38" data-name="椭圆 38" cx="24" cy="24" r="24" transform="translate(554 4529)" fill="rgba(210,210,210,0.25)"/>
      <circle id="椭圆_39" data-name="椭圆 39" cx="89" cy="89" r="89" transform="translate(563 4625)" fill="rgba(210,210,210,0.25)"/>
      <circle id="椭圆_40" data-name="椭圆 40" cx="46.5" cy="46.5" r="46.5" transform="translate(640 4436)" fill="rgba(210,210,210,0.25)"/>
      <circle id="椭圆_41" data-name="椭圆 41" cx="45" cy="45" r="45" transform="translate(797 4595)" fill="rgba(210,210,210,0.25)"/>
      <circle id="椭圆_42" data-name="椭圆 42" cx="34" cy="34" r="34" transform="translate(960 4606)" fill="rgba(210,210,210,0.25)"/>
      <circle id="椭圆_43" data-name="椭圆 43" cx="45" cy="45" r="45" transform="translate(864 4704)" fill="rgba(210,210,210,0.25)"/>
      <circle id="椭圆_44" data-name="椭圆 44" cx="11.5" cy="11.5" r="11.5" transform="translate(517 4622)" fill="rgba(210,210,210,0.25)"/>
      <circle id="椭圆_45" data-name="椭圆 45" cx="32.5" cy="32.5" r="32.5" transform="translate(441 4512)" fill="rgba(210,210,210,0.25)"/>
      <circle id="椭圆_67" data-name="椭圆 67" cx="32.5" cy="32.5" r="32.5" transform="translate(895 4906)" fill="rgba(210,210,210,0.25)"/>
      <circle id="椭圆_68" data-name="椭圆 68" cx="32.5" cy="32.5" r="32.5" transform="translate(391 5272)" fill="rgba(210,210,210,0.25)"/>
      <circle id="椭圆_46" data-name="椭圆 46" cx="32.5" cy="32.5" r="32.5" transform="translate(174 4396)" fill="rgba(210,210,210,0.25)"/>
      <circle id="椭圆_47" data-name="椭圆 47" cx="34.5" cy="34.5" r="34.5" transform="translate(691 4553)" fill="rgba(210,210,210,0.25)"/>
      <circle id="椭圆_48" data-name="椭圆 48" cx="45" cy="45" r="45" transform="translate(1101 4589)" fill="rgba(210,210,210,0.25)"/>
      <circle id="椭圆_49" data-name="椭圆 49" cx="40" cy="40" r="40" transform="translate(1028 4701)" fill="rgba(210,210,210,0.25)"/>
      <circle id="椭圆_69" data-name="椭圆 69" cx="40" cy="40" r="40" transform="translate(1541 5305)" fill="rgba(210,210,210,0.25)"/>
      <circle id="椭圆_50" data-name="椭圆 50" cx="56" cy="56" r="56" transform="translate(1182 4704)" fill="rgba(210,210,210,0.25)"/>
      <circle id="椭圆_64" data-name="椭圆 64" cx="56" cy="56" r="56" transform="translate(1191 5077)" fill="rgba(210,210,210,0.25)"/>
      <circle id="椭圆_51" data-name="椭圆 51" cx="58" cy="58" r="58" transform="translate(1587 4461)" fill="rgba(210,210,210,0.25)"/>
      <circle id="椭圆_52" data-name="椭圆 52" cx="58" cy="58" r="58" transform="translate(1507 4592)" fill="rgba(210,210,210,0.25)"/>
      <circle id="椭圆_53" data-name="椭圆 53" cx="32.5" cy="32.5" r="32.5" transform="translate(1726 4546)" fill="rgba(210,210,210,0.25)"/>
      <circle id="椭圆_54" data-name="椭圆 54" cx="22.5" cy="22.5" r="22.5" transform="translate(1425 4650)" fill="rgba(210,210,210,0.25)"/>
      <circle id="椭圆_55" data-name="椭圆 55" cx="37" cy="37" r="37" transform="translate(1368 4720)" fill="rgba(210,210,210,0.25)"/>
      <circle id="椭圆_56" data-name="椭圆 56" cx="31" cy="31" r="31" transform="translate(1264 4622)" fill="rgba(210,210,210,0.25)"/>
      <circle id="椭圆_57" data-name="椭圆 57" cx="33.5" cy="33.5" r="33.5" transform="translate(1660 4612)" fill="rgba(210,210,210,0.25)"/>
      <circle id="椭圆_66" data-name="椭圆 66" cx="33.5" cy="33.5" r="33.5" transform="translate(1802 4983)" fill="rgba(210,210,210,0.25)"/>
      <circle id="椭圆_62" data-name="椭圆 62" cx="22.5" cy="22.5" r="22.5" transform="translate(1789 4608)" fill="rgba(210,210,210,0.25)"/>
      <circle id="椭圆_63" data-name="椭圆 63" cx="12" cy="12" r="12" transform="translate(1845 4573)" fill="rgba(210,210,210,0.25)"/>
      <circle id="椭圆_58" data-name="椭圆 58" cx="17" cy="17" r="17" transform="translate(1587 4723)" fill="rgba(210,210,210,0.25)"/>
      <circle id="椭圆_72" data-name="椭圆 72" cx="17" cy="17" r="17" transform="translate(1541 5077)" fill="rgba(210,210,210,0.25)"/>
      <circle id="椭圆_70" data-name="椭圆 70" cx="17" cy="17" r="17" transform="translate(760 5133)" fill="rgba(210,210,210,0.25)"/>
      <circle id="椭圆_59" data-name="椭圆 59" cx="30" cy="30" r="30" transform="translate(43 4463)" fill="rgba(210,210,210,0.25)"/>
      <circle id="椭圆_60" data-name="椭圆 60" cx="25.5" cy="25.5" r="25.5" transform="translate(37 4599)" fill="rgba(210,210,210,0.25)"/>
      <circle id="椭圆_71" data-name="椭圆 71" cx="25.5" cy="25.5" r="25.5" transform="translate(103 5294)" fill="rgba(210,210,210,0.25)"/>
      <circle id="椭圆_61" data-name="椭圆 61" cx="9.5" cy="9.5" r="9.5" transform="translate(37 4541)" fill="rgba(210,210,210,0.25)"/>
    </g>
  </g>
</svg>
