<svg id="eli_backggg" xmlns="http://www.w3.org/2000/svg" xmlns:xlink="http://www.w3.org/1999/xlink" width="1922.416" height="1012.08" viewBox="0 0 1922.416 1012.08">
  <defs>
    <linearGradient id="linear-gradient" x1="0.5" y1="1" x2="0.5" gradientUnits="objectBoundingBox">
      <stop offset="0" stop-color="#4a96a2"/>
      <stop offset="1" stop-color="#01dcff"/>
    </linearGradient>
  </defs>
  <path id="Path_25" data-name="Path 25" d="M4397,3883.08H6319.416V2996.462L4862.9,2871,4397,2970.923Z" transform="translate(-4397 -2871)" fill="url(#linear-gradient)"/>
  <g id="Subtraction_7" data-name="Subtraction 7" transform="translate(1675 926.08) rotate(180)" fill="none">
    <path d="M700.858,0H386.227V169.21h-71.6V326.633H620.184V558.138H973.135V281.174h33.277V558.138H973.135v98.495h315.636V825H1675V449.54H1359.362V656.633h-70.59V449.54h70.59V281.174h-352.95V182.68H700.858V326.633H620.184V182.68h80.674V0ZM314.63,0H0V169.21H314.63V0Z" stroke="none"/>
    <path d="M 9 9.0008544921875 L 9 160.210205078125 L 305.6295166015625 160.210205078125 L 305.6295166015625 9.0008544921875 L 9 9.0008544921875 M 395.2274169921875 9.0008544921875 L 395.2274169921875 169.210205078125 L 395.2274169921875 178.210205078125 L 386.2274169921875 178.210205078125 L 323.6295166015625 178.210205078125 L 323.6295166015625 317.6328125 L 611.1839599609375 317.6328125 L 611.1839599609375 182.6798095703125 L 611.1839599609375 173.6798095703125 L 620.1839599609375 173.6798095703125 L 691.8578491210938 173.6798095703125 L 691.8578491210938 9.0008544921875 L 395.2274169921875 9.0008544921875 M 997.4114379882813 191.678955078125 L 709.8578491210938 191.6797485351563 L 709.8578491210938 326.6328125 L 709.8578491210938 335.6328125 L 700.8578491210938 335.6328125 L 629.1839599609375 335.6328125 L 629.1839599609375 549.1380615234375 L 964.1354370117188 549.1380615234375 L 964.1354370117188 281.174560546875 L 964.1354370117188 272.174560546875 L 973.1354370117188 272.174560546875 L 997.4124755859375 272.174560546875 L 997.4114379882813 191.678955078125 M 1350.361328125 290.1735229492188 L 1015.41259765625 290.174560546875 L 1015.41259765625 558.1380615234375 L 1015.41259765625 567.1380615234375 L 1006.41259765625 567.1380615234375 L 982.1354370117188 567.1380615234375 L 982.1354370117188 647.6328125 L 1279.771728515625 647.6328125 L 1279.771728515625 449.5404357910156 L 1279.771728515625 440.5404357910156 L 1288.771728515625 440.5404357910156 L 1350.361938476563 440.5404357910156 L 1350.361328125 290.1735229492188 M 1665.999389648438 458.5395812988281 L 1368.361938476563 458.5404052734375 L 1368.361938476563 656.6328125 L 1368.361938476563 665.6328125 L 1359.361938476563 665.6328125 L 1297.771728515625 665.6328125 L 1297.771728515625 816 L 1666 816 L 1665.999389648438 458.5395812988281 M 314.6295166015625 0 L 314.6295166015625 0.0008544921875 L 314.6295166015625 0 Z M 700.8578491210938 0 L 700.8578491210938 0.0008544921875 L 700.8578491210938 0 Z M 0 0.0008544921875 L 314.6295166015625 0.0008544921875 L 314.6295166015625 169.210205078125 L 0 169.210205078125 L 0 0.0008544921875 Z M 386.2274169921875 0.0008544921875 L 700.8578491210938 0.0008544921875 L 700.8578491210938 182.6798095703125 L 620.1839599609375 182.6798095703125 L 620.1839599609375 326.6328125 L 700.8578491210938 326.6328125 L 700.8578491210938 182.6798095703125 L 1006.411315917969 182.6788940429688 L 1006.41259765625 182.6788940429688 L 1006.41259765625 182.6798095703125 L 1006.41259765625 281.174560546875 L 1359.361328125 281.1734619140625 L 1359.361938476563 281.1734619140625 L 1359.361938476563 281.174560546875 L 1359.361938476563 449.5404357910156 L 1288.771728515625 449.5404357910156 L 1288.771728515625 656.6328125 L 1359.361938476563 656.6328125 L 1359.361938476563 449.5404357910156 L 1674.999389648438 449.53955078125 L 1675 449.53955078125 L 1675 449.5404357910156 L 1675 825 L 1288.771728515625 825 L 1288.771728515625 656.6328125 L 973.1354370117188 656.6328125 L 973.1354370117188 558.1380615234375 L 1006.41259765625 558.1380615234375 L 1006.41259765625 281.174560546875 L 973.1354370117188 281.174560546875 L 973.1354370117188 558.1380615234375 L 620.1839599609375 558.1380615234375 L 620.1839599609375 326.6328125 L 314.6295166015625 326.6328125 L 314.6295166015625 169.210205078125 L 386.2274169921875 169.210205078125 L 386.2274169921875 0.0008544921875 Z" stroke="none" fill="#00b5e4"/>
  </g>
</svg>
