<svg xmlns="http://www.w3.org/2000/svg" width="430" height="430" viewBox="0 0 430 430"><path d="M419.624,424.812A5.188,5.188,0,1,1,424.812,430,5.188,5.188,0,0,1,419.624,424.812Zm-17.484,0A5.188,5.188,0,1,1,407.328,430,5.188,5.188,0,0,1,402.139,424.812Zm-17.484,0A5.188,5.188,0,1,1,389.843,430,5.188,5.188,0,0,1,384.655,424.812Zm-17.484,0A5.188,5.188,0,1,1,372.359,430,5.188,5.188,0,0,1,367.171,424.812Zm-17.484,0A5.188,5.188,0,1,1,354.875,430,5.188,5.188,0,0,1,349.686,424.812Zm-17.484,0A5.188,5.188,0,1,1,337.391,430,5.188,5.188,0,0,1,332.2,424.812Zm-17.484,0A5.188,5.188,0,1,1,319.906,430,5.188,5.188,0,0,1,314.718,424.812Zm-17.484,0A5.188,5.188,0,1,1,302.422,430,5.188,5.188,0,0,1,297.233,424.812Zm-17.484,0A5.188,5.188,0,1,1,284.938,430,5.188,5.188,0,0,1,279.749,424.812Zm-17.484,0A5.188,5.188,0,1,1,267.453,430,5.188,5.188,0,0,1,262.265,424.812Zm-17.484,0A5.188,5.188,0,1,1,249.969,430,5.188,5.188,0,0,1,244.78,424.812Zm-17.484,0A5.188,5.188,0,1,1,232.485,430,5.188,5.188,0,0,1,227.3,424.812Zm-17.484,0A5.188,5.188,0,1,1,215,430,5.188,5.188,0,0,1,209.812,424.812Zm-17.484,0A5.188,5.188,0,1,1,197.516,430,5.188,5.188,0,0,1,192.327,424.812Zm-17.484,0A5.188,5.188,0,1,1,180.032,430,5.188,5.188,0,0,1,174.843,424.812Zm-17.484,0A5.188,5.188,0,1,1,162.547,430,5.188,5.188,0,0,1,157.359,424.812Zm-17.484,0A5.188,5.188,0,1,1,145.063,430,5.188,5.188,0,0,1,139.875,424.812Zm-17.484,0A5.188,5.188,0,1,1,127.579,430,5.188,5.188,0,0,1,122.39,424.812Zm-17.484,0A5.188,5.188,0,1,1,110.094,430,5.188,5.188,0,0,1,104.906,424.812Zm-17.484,0A5.188,5.188,0,1,1,92.61,430,5.188,5.188,0,0,1,87.422,424.812Zm-17.484,0A5.188,5.188,0,1,1,75.126,430,5.188,5.188,0,0,1,69.937,424.812Zm-17.484,0A5.188,5.188,0,1,1,57.641,430,5.188,5.188,0,0,1,52.453,424.812Zm-17.484,0A5.188,5.188,0,1,1,40.157,430,5.188,5.188,0,0,1,34.969,424.812Zm-17.484,0A5.188,5.188,0,1,1,22.673,430,5.188,5.188,0,0,1,17.484,424.812ZM0,424.812A5.188,5.188,0,1,1,5.188,430,5.188,5.188,0,0,1,0,424.812Zm419.624-17.484a5.188,5.188,0,1,1,5.188,5.188A5.188,5.188,0,0,1,419.624,407.328Zm-17.484,0a5.188,5.188,0,1,1,5.188,5.188A5.188,5.188,0,0,1,402.139,407.328Zm-17.484,0a5.188,5.188,0,1,1,5.188,5.188A5.188,5.188,0,0,1,384.655,407.328Zm-17.484,0a5.188,5.188,0,1,1,5.188,5.188A5.188,5.188,0,0,1,367.171,407.328Zm-17.484,0a5.188,5.188,0,1,1,5.188,5.188A5.188,5.188,0,0,1,349.686,407.328Zm-17.484,0a5.188,5.188,0,1,1,5.188,5.188A5.188,5.188,0,0,1,332.2,407.328Zm-17.484,0a5.188,5.188,0,1,1,5.188,5.188A5.188,5.188,0,0,1,314.718,407.328Zm-17.484,0a5.188,5.188,0,1,1,5.188,5.188A5.188,5.188,0,0,1,297.233,407.328Zm-17.484,0a5.188,5.188,0,1,1,5.188,5.188A5.188,5.188,0,0,1,279.749,407.328Zm-17.484,0a5.188,5.188,0,1,1,5.189,5.188A5.188,5.188,0,0,1,262.265,407.328Zm-17.484,0a5.188,5.188,0,1,1,5.188,5.188A5.188,5.188,0,0,1,244.78,407.328Zm-17.484,0a5.188,5.188,0,1,1,5.188,5.188A5.188,5.188,0,0,1,227.3,407.328Zm-17.484,0A5.188,5.188,0,1,1,215,412.516,5.188,5.188,0,0,1,209.812,407.328Zm-17.484,0a5.188,5.188,0,1,1,5.188,5.188A5.188,5.188,0,0,1,192.327,407.328Zm-17.484,0a5.188,5.188,0,1,1,5.188,5.188A5.188,5.188,0,0,1,174.843,407.328Zm-17.484,0a5.188,5.188,0,1,1,5.188,5.188A5.188,5.188,0,0,1,157.359,407.328Zm-17.484,0a5.188,5.188,0,1,1,5.188,5.188A5.188,5.188,0,0,1,139.875,407.328Zm-17.484,0a5.188,5.188,0,1,1,5.188,5.188A5.188,5.188,0,0,1,122.39,407.328Zm-17.484,0a5.188,5.188,0,1,1,5.188,5.188A5.188,5.188,0,0,1,104.906,407.328Zm-17.484,0a5.188,5.188,0,1,1,5.188,5.188A5.188,5.188,0,0,1,87.422,407.328Zm-17.484,0a5.188,5.188,0,1,1,5.188,5.188A5.188,5.188,0,0,1,69.937,407.328Zm-17.484,0a5.188,5.188,0,1,1,5.188,5.188A5.188,5.188,0,0,1,52.453,407.328Zm-17.484,0a5.188,5.188,0,1,1,5.188,5.188A5.188,5.188,0,0,1,34.969,407.328Zm-17.484,0a5.188,5.188,0,1,1,5.188,5.188A5.188,5.188,0,0,1,17.484,407.328ZM0,407.328a5.188,5.188,0,1,1,5.188,5.188A5.188,5.188,0,0,1,0,407.328Zm419.624-17.484a5.188,5.188,0,1,1,5.188,5.189A5.188,5.188,0,0,1,419.624,389.843Zm-17.484,0a5.188,5.188,0,1,1,5.188,5.189A5.188,5.188,0,0,1,402.139,389.843Zm-17.484,0a5.188,5.188,0,1,1,5.188,5.189A5.188,5.188,0,0,1,384.655,389.843Zm-17.484,0a5.188,5.188,0,1,1,5.188,5.189A5.188,5.188,0,0,1,367.171,389.843Zm-17.484,0a5.188,5.188,0,1,1,5.188,5.189A5.188,5.188,0,0,1,349.686,389.843Zm-17.484,0a5.188,5.188,0,1,1,5.188,5.189A5.188,5.188,0,0,1,332.2,389.843Zm-17.484,0a5.188,5.188,0,1,1,5.188,5.189A5.188,5.188,0,0,1,314.718,389.843Zm-17.484,0a5.188,5.188,0,1,1,5.188,5.189A5.188,5.188,0,0,1,297.233,389.843Zm-17.484,0a5.188,5.188,0,1,1,5.188,5.189A5.188,5.188,0,0,1,279.749,389.843Zm-17.484,0a5.188,5.188,0,1,1,5.189,5.189A5.188,5.188,0,0,1,262.265,389.843Zm-17.484,0a5.188,5.188,0,1,1,5.188,5.189A5.188,5.188,0,0,1,244.78,389.843Zm-17.484,0a5.188,5.188,0,1,1,5.188,5.189A5.188,5.188,0,0,1,227.3,389.843Zm-17.484,0A5.188,5.188,0,1,1,215,395.032,5.188,5.188,0,0,1,209.812,389.843Zm-17.484,0a5.188,5.188,0,1,1,5.188,5.189A5.188,5.188,0,0,1,192.327,389.843Zm-17.484,0a5.188,5.188,0,1,1,5.188,5.189A5.188,5.188,0,0,1,174.843,389.843Zm-17.484,0a5.188,5.188,0,1,1,5.188,5.189A5.188,5.188,0,0,1,157.359,389.843Zm-17.484,0a5.188,5.188,0,1,1,5.188,5.189A5.188,5.188,0,0,1,139.875,389.843Zm-17.484,0a5.188,5.188,0,1,1,5.188,5.189A5.188,5.188,0,0,1,122.39,389.843Zm-17.484,0a5.188,5.188,0,1,1,5.188,5.189A5.188,5.188,0,0,1,104.906,389.843Zm-17.484,0a5.188,5.188,0,1,1,5.188,5.189A5.188,5.188,0,0,1,87.422,389.843Zm-17.484,0a5.188,5.188,0,1,1,5.188,5.189A5.188,5.188,0,0,1,69.937,389.843Zm-17.484,0a5.188,5.188,0,1,1,5.188,5.189A5.188,5.188,0,0,1,52.453,389.843Zm-17.484,0a5.188,5.188,0,1,1,5.188,5.189A5.188,5.188,0,0,1,34.969,389.843Zm-17.484,0a5.188,5.188,0,1,1,5.188,5.189A5.188,5.188,0,0,1,17.484,389.843ZM0,389.843a5.188,5.188,0,1,1,5.188,5.189A5.188,5.188,0,0,1,0,389.843Zm419.624-17.484a5.188,5.188,0,1,1,5.188,5.189A5.188,5.188,0,0,1,419.624,372.359Zm-17.484,0a5.188,5.188,0,1,1,5.188,5.189A5.188,5.188,0,0,1,402.139,372.359Zm-17.484,0a5.188,5.188,0,1,1,5.188,5.189A5.188,5.188,0,0,1,384.655,372.359Zm-17.484,0a5.188,5.188,0,1,1,5.188,5.189A5.188,5.188,0,0,1,367.171,372.359Zm-17.484,0a5.188,5.188,0,1,1,5.188,5.189A5.188,5.188,0,0,1,349.686,372.359Zm-17.484,0a5.188,5.188,0,1,1,5.188,5.189A5.188,5.188,0,0,1,332.2,372.359Zm-17.484,0a5.188,5.188,0,1,1,5.188,5.189A5.188,5.188,0,0,1,314.718,372.359Zm-17.484,0a5.188,5.188,0,1,1,5.188,5.189A5.188,5.188,0,0,1,297.233,372.359Zm-17.484,0a5.188,5.188,0,1,1,5.188,5.189A5.188,5.188,0,0,1,279.749,372.359Zm-17.484,0a5.188,5.188,0,1,1,5.189,5.189A5.188,5.188,0,0,1,262.265,372.359Zm-17.484,0a5.188,5.188,0,1,1,5.188,5.189A5.188,5.188,0,0,1,244.78,372.359Zm-17.484,0a5.188,5.188,0,1,1,5.188,5.189A5.188,5.188,0,0,1,227.3,372.359Zm-17.484,0A5.188,5.188,0,1,1,215,377.548,5.188,5.188,0,0,1,209.812,372.359Zm-17.484,0a5.188,5.188,0,1,1,5.188,5.189A5.188,5.188,0,0,1,192.327,372.359Zm-17.484,0a5.188,5.188,0,1,1,5.188,5.189A5.188,5.188,0,0,1,174.843,372.359Zm-17.484,0a5.188,5.188,0,1,1,5.188,5.189A5.188,5.188,0,0,1,157.359,372.359Zm-17.484,0a5.188,5.188,0,1,1,5.188,5.189A5.188,5.188,0,0,1,139.875,372.359Zm-17.484,0a5.188,5.188,0,1,1,5.188,5.189A5.188,5.188,0,0,1,122.39,372.359Zm-17.484,0a5.188,5.188,0,1,1,5.188,5.189A5.188,5.188,0,0,1,104.906,372.359Zm-17.484,0a5.188,5.188,0,1,1,5.188,5.189A5.188,5.188,0,0,1,87.422,372.359Zm-17.484,0a5.188,5.188,0,1,1,5.188,5.189A5.188,5.188,0,0,1,69.937,372.359Zm-17.484,0a5.188,5.188,0,1,1,5.188,5.189A5.188,5.188,0,0,1,52.453,372.359Zm-17.484,0a5.188,5.188,0,1,1,5.188,5.189A5.188,5.188,0,0,1,34.969,372.359Zm-17.484,0a5.188,5.188,0,1,1,5.188,5.189A5.188,5.188,0,0,1,17.484,372.359ZM0,372.359a5.188,5.188,0,1,1,5.188,5.189A5.188,5.188,0,0,1,0,372.359Zm419.624-17.484a5.188,5.188,0,1,1,5.188,5.188A5.188,5.188,0,0,1,419.624,354.875Zm-17.484,0a5.188,5.188,0,1,1,5.188,5.188A5.188,5.188,0,0,1,402.139,354.875Zm-17.484,0a5.188,5.188,0,1,1,5.188,5.188A5.188,5.188,0,0,1,384.655,354.875Zm-17.484,0a5.188,5.188,0,1,1,5.188,5.188A5.188,5.188,0,0,1,367.171,354.875Zm-17.484,0a5.188,5.188,0,1,1,5.188,5.188A5.188,5.188,0,0,1,349.686,354.875Zm-17.484,0a5.188,5.188,0,1,1,5.188,5.188A5.188,5.188,0,0,1,332.2,354.875Zm-17.484,0a5.188,5.188,0,1,1,5.188,5.188A5.188,5.188,0,0,1,314.718,354.875Zm-17.484,0a5.188,5.188,0,1,1,5.188,5.188A5.188,5.188,0,0,1,297.233,354.875Zm-17.484,0a5.188,5.188,0,1,1,5.188,5.188A5.188,5.188,0,0,1,279.749,354.875Zm-17.484,0a5.188,5.188,0,1,1,5.189,5.188A5.188,5.188,0,0,1,262.265,354.875Zm-17.484,0a5.188,5.188,0,1,1,5.188,5.188A5.188,5.188,0,0,1,244.78,354.875Zm-17.484,0a5.188,5.188,0,1,1,5.188,5.188A5.188,5.188,0,0,1,227.3,354.875Zm-17.484,0A5.188,5.188,0,1,1,215,360.063,5.188,5.188,0,0,1,209.812,354.875Zm-17.484,0a5.188,5.188,0,1,1,5.188,5.188A5.188,5.188,0,0,1,192.327,354.875Zm-17.484,0a5.188,5.188,0,1,1,5.188,5.188A5.188,5.188,0,0,1,174.843,354.875Zm-17.484,0a5.188,5.188,0,1,1,5.188,5.188A5.188,5.188,0,0,1,157.359,354.875Zm-17.484,0a5.188,5.188,0,1,1,5.188,5.188A5.188,5.188,0,0,1,139.875,354.875Zm-17.484,0a5.188,5.188,0,1,1,5.188,5.188A5.188,5.188,0,0,1,122.39,354.875Zm-17.484,0a5.188,5.188,0,1,1,5.188,5.188A5.188,5.188,0,0,1,104.906,354.875Zm-17.484,0a5.188,5.188,0,1,1,5.188,5.188A5.188,5.188,0,0,1,87.422,354.875Zm-17.484,0a5.188,5.188,0,1,1,5.188,5.188A5.188,5.188,0,0,1,69.937,354.875Zm-17.484,0a5.188,5.188,0,1,1,5.188,5.188A5.188,5.188,0,0,1,52.453,354.875Zm-17.484,0a5.188,5.188,0,1,1,5.188,5.188A5.188,5.188,0,0,1,34.969,354.875Zm-17.484,0a5.188,5.188,0,1,1,5.188,5.188A5.188,5.188,0,0,1,17.484,354.875ZM0,354.875a5.188,5.188,0,1,1,5.188,5.188A5.188,5.188,0,0,1,0,354.875Zm419.624-17.484a5.188,5.188,0,1,1,5.188,5.188A5.188,5.188,0,0,1,419.624,337.391Zm-17.484,0a5.188,5.188,0,1,1,5.188,5.188A5.188,5.188,0,0,1,402.139,337.391Zm-17.484,0a5.188,5.188,0,1,1,5.188,5.188A5.188,5.188,0,0,1,384.655,337.391Zm-17.484,0a5.188,5.188,0,1,1,5.188,5.188A5.188,5.188,0,0,1,367.171,337.391Zm-17.484,0a5.188,5.188,0,1,1,5.188,5.188A5.188,5.188,0,0,1,349.686,337.391Zm-17.484,0a5.188,5.188,0,1,1,5.188,5.188A5.188,5.188,0,0,1,332.2,337.391Zm-17.484,0a5.188,5.188,0,1,1,5.188,5.188A5.188,5.188,0,0,1,314.718,337.391Zm-17.484,0a5.188,5.188,0,1,1,5.188,5.188A5.188,5.188,0,0,1,297.233,337.391Zm-17.484,0a5.188,5.188,0,1,1,5.188,5.188A5.188,5.188,0,0,1,279.749,337.391Zm-17.484,0a5.188,5.188,0,1,1,5.189,5.188A5.188,5.188,0,0,1,262.265,337.391Zm-17.484,0a5.188,5.188,0,1,1,5.188,5.188A5.188,5.188,0,0,1,244.78,337.391Zm-17.484,0a5.188,5.188,0,1,1,5.188,5.188A5.188,5.188,0,0,1,227.3,337.391Zm-17.484,0A5.188,5.188,0,1,1,215,342.579,5.188,5.188,0,0,1,209.812,337.391Zm-17.484,0a5.188,5.188,0,1,1,5.188,5.188A5.188,5.188,0,0,1,192.327,337.391Zm-17.484,0a5.188,5.188,0,1,1,5.188,5.188A5.188,5.188,0,0,1,174.843,337.391Zm-17.484,0a5.188,5.188,0,1,1,5.188,5.188A5.188,5.188,0,0,1,157.359,337.391Zm-17.484,0a5.188,5.188,0,1,1,5.188,5.188A5.188,5.188,0,0,1,139.875,337.391Zm-17.484,0a5.188,5.188,0,1,1,5.188,5.188A5.188,5.188,0,0,1,122.39,337.391Zm-17.484,0a5.188,5.188,0,1,1,5.188,5.188A5.188,5.188,0,0,1,104.906,337.391Zm-17.484,0a5.188,5.188,0,1,1,5.188,5.188A5.188,5.188,0,0,1,87.422,337.391Zm-17.484,0a5.188,5.188,0,1,1,5.188,5.188A5.188,5.188,0,0,1,69.937,337.391Zm-17.484,0a5.188,5.188,0,1,1,5.188,5.188A5.188,5.188,0,0,1,52.453,337.391Zm-17.484,0a5.188,5.188,0,1,1,5.188,5.188A5.188,5.188,0,0,1,34.969,337.391Zm-17.484,0a5.188,5.188,0,1,1,5.188,5.188A5.188,5.188,0,0,1,17.484,337.391ZM0,337.391a5.188,5.188,0,1,1,5.188,5.188A5.188,5.188,0,0,1,0,337.391Zm419.624-17.484a5.188,5.188,0,1,1,5.188,5.188A5.188,5.188,0,0,1,419.624,319.906Zm-17.484,0a5.188,5.188,0,1,1,5.188,5.188A5.188,5.188,0,0,1,402.139,319.906Zm-17.484,0a5.188,5.188,0,1,1,5.188,5.188A5.188,5.188,0,0,1,384.655,319.906Zm-17.484,0a5.188,5.188,0,1,1,5.188,5.188A5.188,5.188,0,0,1,367.171,319.906Zm-17.484,0a5.188,5.188,0,1,1,5.188,5.188A5.188,5.188,0,0,1,349.686,319.906Zm-17.484,0a5.188,5.188,0,1,1,5.188,5.188A5.188,5.188,0,0,1,332.2,319.906Zm-17.484,0a5.188,5.188,0,1,1,5.188,5.188A5.189,5.189,0,0,1,314.718,319.906Zm-17.484,0a5.188,5.188,0,1,1,5.188,5.188A5.189,5.189,0,0,1,297.233,319.906Zm-17.484,0a5.188,5.188,0,1,1,5.188,5.188A5.189,5.189,0,0,1,279.749,319.906Zm-17.484,0a5.188,5.188,0,1,1,5.189,5.188A5.189,5.189,0,0,1,262.265,319.906Zm-17.484,0a5.188,5.188,0,1,1,5.188,5.188A5.189,5.189,0,0,1,244.78,319.906Zm-17.484,0a5.188,5.188,0,1,1,5.188,5.188A5.189,5.189,0,0,1,227.3,319.906Zm-17.484,0A5.188,5.188,0,1,1,215,325.095,5.189,5.189,0,0,1,209.812,319.906Zm-17.484,0a5.188,5.188,0,1,1,5.188,5.188A5.189,5.189,0,0,1,192.327,319.906Zm-17.484,0a5.188,5.188,0,1,1,5.188,5.188A5.188,5.188,0,0,1,174.843,319.906Zm-17.484,0a5.188,5.188,0,1,1,5.188,5.188A5.188,5.188,0,0,1,157.359,319.906Zm-17.484,0a5.188,5.188,0,1,1,5.188,5.188A5.188,5.188,0,0,1,139.875,319.906Zm-17.484,0a5.188,5.188,0,1,1,5.188,5.188A5.188,5.188,0,0,1,122.39,319.906Zm-17.484,0a5.188,5.188,0,1,1,5.188,5.188A5.188,5.188,0,0,1,104.906,319.906Zm-17.484,0a5.188,5.188,0,1,1,5.188,5.188A5.188,5.188,0,0,1,87.422,319.906Zm-17.484,0a5.188,5.188,0,1,1,5.188,5.188A5.188,5.188,0,0,1,69.937,319.906Zm-17.484,0a5.188,5.188,0,1,1,5.188,5.188A5.188,5.188,0,0,1,52.453,319.906Zm-17.484,0a5.188,5.188,0,1,1,5.188,5.188A5.188,5.188,0,0,1,34.969,319.906Zm-17.484,0a5.188,5.188,0,1,1,5.188,5.188A5.188,5.188,0,0,1,17.484,319.906ZM0,319.906a5.188,5.188,0,1,1,5.188,5.188A5.188,5.188,0,0,1,0,319.906Zm419.624-17.484a5.188,5.188,0,1,1,5.188,5.188A5.188,5.188,0,0,1,419.624,302.422Zm-17.484,0a5.188,5.188,0,1,1,5.188,5.188A5.188,5.188,0,0,1,402.139,302.422Zm-17.484,0a5.188,5.188,0,1,1,5.188,5.188A5.188,5.188,0,0,1,384.655,302.422Zm-17.484,0a5.188,5.188,0,1,1,5.188,5.188A5.188,5.188,0,0,1,367.171,302.422Zm-17.484,0a5.188,5.188,0,1,1,5.188,5.188A5.188,5.188,0,0,1,349.686,302.422Zm-17.484,0a5.188,5.188,0,1,1,5.188,5.188A5.188,5.188,0,0,1,332.2,302.422Zm-17.484,0a5.188,5.188,0,1,1,5.188,5.188A5.189,5.189,0,0,1,314.718,302.422Zm-17.484,0a5.188,5.188,0,1,1,5.188,5.188A5.189,5.189,0,0,1,297.233,302.422Zm-17.484,0a5.188,5.188,0,1,1,5.188,5.188A5.189,5.189,0,0,1,279.749,302.422Zm-17.484,0a5.188,5.188,0,1,1,5.189,5.188A5.189,5.189,0,0,1,262.265,302.422Zm-17.484,0a5.188,5.188,0,1,1,5.188,5.188A5.189,5.189,0,0,1,244.78,302.422Zm-17.484,0a5.188,5.188,0,1,1,5.188,5.188A5.189,5.189,0,0,1,227.3,302.422Zm-17.484,0A5.188,5.188,0,1,1,215,307.61,5.189,5.189,0,0,1,209.812,302.422Zm-17.484,0a5.188,5.188,0,1,1,5.188,5.188A5.189,5.189,0,0,1,192.327,302.422Zm-17.484,0a5.188,5.188,0,1,1,5.188,5.188A5.188,5.188,0,0,1,174.843,302.422Zm-17.484,0a5.188,5.188,0,1,1,5.188,5.188A5.188,5.188,0,0,1,157.359,302.422Zm-17.484,0a5.188,5.188,0,1,1,5.188,5.188A5.188,5.188,0,0,1,139.875,302.422Zm-17.484,0a5.188,5.188,0,1,1,5.188,5.188A5.188,5.188,0,0,1,122.39,302.422Zm-17.484,0a5.188,5.188,0,1,1,5.188,5.188A5.188,5.188,0,0,1,104.906,302.422Zm-17.484,0a5.188,5.188,0,1,1,5.188,5.188A5.188,5.188,0,0,1,87.422,302.422Zm-17.484,0a5.188,5.188,0,1,1,5.188,5.188A5.188,5.188,0,0,1,69.937,302.422Zm-17.484,0a5.188,5.188,0,1,1,5.188,5.188A5.188,5.188,0,0,1,52.453,302.422Zm-17.484,0a5.188,5.188,0,1,1,5.188,5.188A5.188,5.188,0,0,1,34.969,302.422Zm-17.484,0a5.188,5.188,0,1,1,5.188,5.188A5.188,5.188,0,0,1,17.484,302.422ZM0,302.422a5.188,5.188,0,1,1,5.188,5.188A5.188,5.188,0,0,1,0,302.422Zm419.624-17.484a5.188,5.188,0,1,1,5.188,5.188A5.188,5.188,0,0,1,419.624,284.938Zm-17.484,0a5.188,5.188,0,1,1,5.188,5.188A5.188,5.188,0,0,1,402.139,284.938Zm-17.484,0a5.188,5.188,0,1,1,5.188,5.188A5.188,5.188,0,0,1,384.655,284.938Zm-17.484,0a5.188,5.188,0,1,1,5.188,5.188A5.188,5.188,0,0,1,367.171,284.938Zm-17.484,0a5.188,5.188,0,1,1,5.188,5.188A5.188,5.188,0,0,1,349.686,284.938Zm-17.484,0a5.188,5.188,0,1,1,5.188,5.188A5.188,5.188,0,0,1,332.2,284.938Zm-17.484,0a5.188,5.188,0,1,1,5.188,5.188A5.189,5.189,0,0,1,314.718,284.938Zm-17.484,0a5.188,5.188,0,1,1,5.188,5.188A5.189,5.189,0,0,1,297.233,284.938Zm-17.484,0a5.188,5.188,0,1,1,5.188,5.188A5.188,5.188,0,0,1,279.749,284.938Zm-17.484,0a5.188,5.188,0,1,1,5.189,5.188A5.189,5.189,0,0,1,262.265,284.938Zm-17.484,0a5.188,5.188,0,1,1,5.188,5.188A5.189,5.189,0,0,1,244.78,284.938Zm-17.484,0a5.188,5.188,0,1,1,5.188,5.188A5.189,5.189,0,0,1,227.3,284.938Zm-17.484,0A5.188,5.188,0,1,1,215,290.126,5.189,5.189,0,0,1,209.812,284.938Zm-17.484,0a5.188,5.188,0,1,1,5.188,5.188A5.189,5.189,0,0,1,192.327,284.938Zm-17.484,0a5.188,5.188,0,1,1,5.188,5.188A5.188,5.188,0,0,1,174.843,284.938Zm-17.484,0a5.188,5.188,0,1,1,5.188,5.188A5.188,5.188,0,0,1,157.359,284.938Zm-17.484,0a5.188,5.188,0,1,1,5.188,5.188A5.188,5.188,0,0,1,139.875,284.938Zm-17.484,0a5.188,5.188,0,1,1,5.188,5.188A5.188,5.188,0,0,1,122.39,284.938Zm-17.484,0a5.188,5.188,0,1,1,5.188,5.188A5.188,5.188,0,0,1,104.906,284.938Zm-17.484,0a5.188,5.188,0,1,1,5.188,5.188A5.188,5.188,0,0,1,87.422,284.938Zm-17.484,0a5.188,5.188,0,1,1,5.188,5.188A5.188,5.188,0,0,1,69.937,284.938Zm-17.484,0a5.188,5.188,0,1,1,5.188,5.188A5.188,5.188,0,0,1,52.453,284.938Zm-17.484,0a5.188,5.188,0,1,1,5.188,5.188A5.188,5.188,0,0,1,34.969,284.938Zm-17.484,0a5.188,5.188,0,1,1,5.188,5.188A5.188,5.188,0,0,1,17.484,284.938ZM0,284.938a5.188,5.188,0,1,1,5.188,5.188A5.188,5.188,0,0,1,0,284.938Zm419.624-17.484a5.188,5.188,0,1,1,5.188,5.188A5.188,5.188,0,0,1,419.624,267.453Zm-17.484,0a5.188,5.188,0,1,1,5.188,5.188A5.188,5.188,0,0,1,402.139,267.453Zm-17.484,0a5.188,5.188,0,1,1,5.188,5.188A5.188,5.188,0,0,1,384.655,267.453Zm-17.484,0a5.188,5.188,0,1,1,5.188,5.188A5.188,5.188,0,0,1,367.171,267.453Zm-17.484,0a5.188,5.188,0,1,1,5.188,5.188A5.188,5.188,0,0,1,349.686,267.453Zm-17.484,0a5.188,5.188,0,1,1,5.188,5.188A5.188,5.188,0,0,1,332.2,267.453Zm-17.484,0a5.188,5.188,0,1,1,5.188,5.188A5.189,5.189,0,0,1,314.718,267.453Zm-17.484,0a5.188,5.188,0,1,1,5.188,5.188A5.189,5.189,0,0,1,297.233,267.453Zm-17.484,0a5.188,5.188,0,1,1,5.188,5.188A5.189,5.189,0,0,1,279.749,267.453Zm-17.484,0a5.188,5.188,0,1,1,5.189,5.188A5.189,5.189,0,0,1,262.265,267.453Zm-17.484,0a5.188,5.188,0,1,1,5.188,5.188A5.189,5.189,0,0,1,244.78,267.453Zm-17.484,0a5.188,5.188,0,1,1,5.188,5.188A5.189,5.189,0,0,1,227.3,267.453Zm-17.484,0A5.188,5.188,0,1,1,215,272.642,5.189,5.189,0,0,1,209.812,267.453Zm-17.484,0a5.188,5.188,0,1,1,5.188,5.188A5.189,5.189,0,0,1,192.327,267.453Zm-17.484,0a5.188,5.188,0,1,1,5.188,5.188A5.188,5.188,0,0,1,174.843,267.453Zm-17.484,0a5.188,5.188,0,1,1,5.188,5.188A5.188,5.188,0,0,1,157.359,267.453Zm-17.484,0a5.188,5.188,0,1,1,5.188,5.188A5.188,5.188,0,0,1,139.875,267.453Zm-17.484,0a5.188,5.188,0,1,1,5.188,5.188A5.188,5.188,0,0,1,122.39,267.453Zm-17.484,0a5.188,5.188,0,1,1,5.188,5.188A5.188,5.188,0,0,1,104.906,267.453Zm-17.484,0a5.188,5.188,0,1,1,5.188,5.188A5.188,5.188,0,0,1,87.422,267.453Zm-17.484,0a5.188,5.188,0,1,1,5.188,5.188A5.188,5.188,0,0,1,69.937,267.453Zm-17.484,0a5.188,5.188,0,1,1,5.188,5.188A5.188,5.188,0,0,1,52.453,267.453Zm-17.484,0a5.188,5.188,0,1,1,5.188,5.188A5.188,5.188,0,0,1,34.969,267.453Zm-17.484,0a5.188,5.188,0,1,1,5.188,5.188A5.188,5.188,0,0,1,17.484,267.453ZM0,267.453a5.188,5.188,0,1,1,5.188,5.188A5.188,5.188,0,0,1,0,267.453Zm419.624-17.484a5.188,5.188,0,1,1,5.188,5.188A5.188,5.188,0,0,1,419.624,249.969Zm-17.484,0a5.188,5.188,0,1,1,5.188,5.188A5.188,5.188,0,0,1,402.139,249.969Zm-17.484,0a5.188,5.188,0,1,1,5.188,5.188A5.188,5.188,0,0,1,384.655,249.969Zm-17.484,0a5.188,5.188,0,1,1,5.188,5.188A5.188,5.188,0,0,1,367.171,249.969Zm-17.484,0a5.188,5.188,0,1,1,5.188,5.188A5.188,5.188,0,0,1,349.686,249.969Zm-17.484,0a5.188,5.188,0,1,1,5.188,5.188A5.188,5.188,0,0,1,332.2,249.969Zm-17.484,0a5.188,5.188,0,1,1,5.188,5.188A5.189,5.189,0,0,1,314.718,249.969Zm-17.484,0a5.188,5.188,0,1,1,5.188,5.188A5.189,5.189,0,0,1,297.233,249.969Zm-17.484,0a5.188,5.188,0,1,1,5.188,5.188A5.189,5.189,0,0,1,279.749,249.969Zm-17.484,0a5.188,5.188,0,1,1,5.189,5.188A5.189,5.189,0,0,1,262.265,249.969Zm-17.484,0a5.188,5.188,0,1,1,5.188,5.188A5.189,5.189,0,0,1,244.78,249.969Zm-17.484,0a5.188,5.188,0,1,1,5.188,5.188A5.189,5.189,0,0,1,227.3,249.969Zm-17.484,0A5.188,5.188,0,1,1,215,255.157,5.189,5.189,0,0,1,209.812,249.969Zm-17.484,0a5.188,5.188,0,1,1,5.188,5.188A5.189,5.189,0,0,1,192.327,249.969Zm-17.484,0a5.188,5.188,0,1,1,5.188,5.188A5.188,5.188,0,0,1,174.843,249.969Zm-17.484,0a5.188,5.188,0,1,1,5.188,5.188A5.188,5.188,0,0,1,157.359,249.969Zm-17.484,0a5.188,5.188,0,1,1,5.188,5.188A5.188,5.188,0,0,1,139.875,249.969Zm-17.484,0a5.188,5.188,0,1,1,5.188,5.188A5.188,5.188,0,0,1,122.39,249.969Zm-17.484,0a5.188,5.188,0,1,1,5.188,5.188A5.188,5.188,0,0,1,104.906,249.969Zm-17.484,0a5.188,5.188,0,1,1,5.188,5.188A5.188,5.188,0,0,1,87.422,249.969Zm-17.484,0a5.188,5.188,0,1,1,5.188,5.188A5.188,5.188,0,0,1,69.937,249.969Zm-17.484,0a5.188,5.188,0,1,1,5.188,5.188A5.188,5.188,0,0,1,52.453,249.969Zm-17.484,0a5.188,5.188,0,1,1,5.188,5.188A5.188,5.188,0,0,1,34.969,249.969Zm-17.484,0a5.188,5.188,0,1,1,5.188,5.188A5.188,5.188,0,0,1,17.484,249.969ZM0,249.969a5.188,5.188,0,1,1,5.188,5.188A5.188,5.188,0,0,1,0,249.969Zm419.624-17.484a5.188,5.188,0,1,1,5.188,5.188A5.188,5.188,0,0,1,419.624,232.485Zm-17.484,0a5.188,5.188,0,1,1,5.188,5.188A5.188,5.188,0,0,1,402.139,232.485Zm-17.484,0a5.188,5.188,0,1,1,5.188,5.188A5.188,5.188,0,0,1,384.655,232.485Zm-17.484,0a5.188,5.188,0,1,1,5.188,5.188A5.188,5.188,0,0,1,367.171,232.485Zm-17.484,0a5.188,5.188,0,1,1,5.188,5.188A5.188,5.188,0,0,1,349.686,232.485Zm-17.484,0a5.188,5.188,0,1,1,5.188,5.188A5.188,5.188,0,0,1,332.2,232.485Zm-17.484,0a5.188,5.188,0,1,1,5.188,5.188A5.189,5.189,0,0,1,314.718,232.485Zm-17.484,0a5.188,5.188,0,1,1,5.188,5.188A5.189,5.189,0,0,1,297.233,232.485Zm-17.484,0a5.188,5.188,0,1,1,5.188,5.188A5.189,5.189,0,0,1,279.749,232.485Zm-17.484,0a5.188,5.188,0,1,1,5.189,5.188A5.189,5.189,0,0,1,262.265,232.485Zm-17.484,0a5.188,5.188,0,1,1,5.188,5.188A5.189,5.189,0,0,1,244.78,232.485Zm-17.484,0a5.188,5.188,0,1,1,5.188,5.188A5.189,5.189,0,0,1,227.3,232.485Zm-17.484,0A5.188,5.188,0,1,1,215,237.673,5.189,5.189,0,0,1,209.812,232.485Zm-17.484,0a5.188,5.188,0,1,1,5.188,5.188A5.189,5.189,0,0,1,192.327,232.485Zm-17.484,0a5.188,5.188,0,1,1,5.188,5.188A5.188,5.188,0,0,1,174.843,232.485Zm-17.484,0a5.188,5.188,0,1,1,5.188,5.188A5.188,5.188,0,0,1,157.359,232.485Zm-17.484,0a5.188,5.188,0,1,1,5.188,5.188A5.188,5.188,0,0,1,139.875,232.485Zm-17.484,0a5.188,5.188,0,1,1,5.188,5.188A5.188,5.188,0,0,1,122.39,232.485Zm-17.484,0a5.188,5.188,0,1,1,5.188,5.188A5.188,5.188,0,0,1,104.906,232.485Zm-17.484,0a5.188,5.188,0,1,1,5.188,5.188A5.188,5.188,0,0,1,87.422,232.485Zm-17.484,0a5.188,5.188,0,1,1,5.188,5.188A5.188,5.188,0,0,1,69.937,232.485Zm-17.484,0a5.188,5.188,0,1,1,5.188,5.188A5.188,5.188,0,0,1,52.453,232.485Zm-17.484,0a5.188,5.188,0,1,1,5.188,5.188A5.188,5.188,0,0,1,34.969,232.485Zm-17.484,0a5.188,5.188,0,1,1,5.188,5.188A5.188,5.188,0,0,1,17.484,232.485ZM0,232.485a5.188,5.188,0,1,1,5.188,5.188A5.188,5.188,0,0,1,0,232.485ZM419.624,215a5.188,5.188,0,1,1,5.188,5.188A5.188,5.188,0,0,1,419.624,215Zm-17.484,0a5.188,5.188,0,1,1,5.188,5.188A5.188,5.188,0,0,1,402.139,215Zm-17.484,0a5.188,5.188,0,1,1,5.188,5.188A5.188,5.188,0,0,1,384.655,215Zm-17.484,0a5.188,5.188,0,1,1,5.188,5.188A5.188,5.188,0,0,1,367.171,215Zm-17.484,0a5.188,5.188,0,1,1,5.188,5.188A5.188,5.188,0,0,1,349.686,215ZM332.2,215a5.188,5.188,0,1,1,5.188,5.188A5.188,5.188,0,0,1,332.2,215Zm-17.484,0a5.188,5.188,0,1,1,5.188,5.188A5.189,5.189,0,0,1,314.718,215Zm-17.484,0a5.188,5.188,0,1,1,5.188,5.188A5.189,5.189,0,0,1,297.233,215Zm-17.484,0a5.188,5.188,0,1,1,5.188,5.188A5.189,5.189,0,0,1,279.749,215Zm-17.484,0a5.188,5.188,0,1,1,5.189,5.188A5.189,5.189,0,0,1,262.265,215Zm-17.484,0a5.188,5.188,0,1,1,5.188,5.188A5.189,5.189,0,0,1,244.78,215ZM227.3,215a5.188,5.188,0,1,1,5.188,5.188A5.189,5.189,0,0,1,227.3,215Zm-17.484,0A5.188,5.188,0,1,1,215,220.189,5.189,5.189,0,0,1,209.812,215Zm-17.484,0a5.188,5.188,0,1,1,5.188,5.188A5.189,5.189,0,0,1,192.327,215Zm-17.484,0a5.188,5.188,0,1,1,5.188,5.188A5.188,5.188,0,0,1,174.843,215Zm-17.484,0a5.188,5.188,0,1,1,5.188,5.188A5.188,5.188,0,0,1,157.359,215Zm-17.484,0a5.188,5.188,0,1,1,5.188,5.188A5.188,5.188,0,0,1,139.875,215Zm-17.484,0a5.188,5.188,0,1,1,5.188,5.188A5.188,5.188,0,0,1,122.39,215Zm-17.484,0a5.188,5.188,0,1,1,5.188,5.188A5.188,5.188,0,0,1,104.906,215Zm-17.484,0a5.188,5.188,0,1,1,5.188,5.188A5.188,5.188,0,0,1,87.422,215Zm-17.484,0a5.188,5.188,0,1,1,5.188,5.188A5.188,5.188,0,0,1,69.937,215Zm-17.484,0a5.188,5.188,0,1,1,5.188,5.188A5.188,5.188,0,0,1,52.453,215Zm-17.484,0a5.188,5.188,0,1,1,5.188,5.188A5.188,5.188,0,0,1,34.969,215Zm-17.484,0a5.188,5.188,0,1,1,5.188,5.188A5.188,5.188,0,0,1,17.484,215ZM0,215a5.188,5.188,0,1,1,5.188,5.188A5.188,5.188,0,0,1,0,215Zm419.624-17.484a5.188,5.188,0,1,1,5.188,5.188A5.188,5.188,0,0,1,419.624,197.516Zm-17.484,0a5.188,5.188,0,1,1,5.188,5.188A5.188,5.188,0,0,1,402.139,197.516Zm-17.484,0a5.188,5.188,0,1,1,5.188,5.188A5.188,5.188,0,0,1,384.655,197.516Zm-17.484,0a5.188,5.188,0,1,1,5.188,5.188A5.188,5.188,0,0,1,367.171,197.516Zm-17.484,0a5.188,5.188,0,1,1,5.188,5.188A5.188,5.188,0,0,1,349.686,197.516Zm-17.484,0a5.188,5.188,0,1,1,5.188,5.188A5.188,5.188,0,0,1,332.2,197.516Zm-17.484,0a5.188,5.188,0,1,1,5.188,5.188A5.189,5.189,0,0,1,314.718,197.516Zm-17.484,0a5.188,5.188,0,1,1,5.188,5.188A5.189,5.189,0,0,1,297.233,197.516Zm-17.484,0a5.188,5.188,0,1,1,5.188,5.188A5.189,5.189,0,0,1,279.749,197.516Zm-17.484,0a5.188,5.188,0,1,1,5.189,5.188A5.189,5.189,0,0,1,262.265,197.516Zm-17.484,0a5.188,5.188,0,1,1,5.188,5.188A5.189,5.189,0,0,1,244.78,197.516Zm-17.484,0a5.188,5.188,0,1,1,5.188,5.188A5.189,5.189,0,0,1,227.3,197.516Zm-17.484,0A5.188,5.188,0,1,1,215,202.7,5.189,5.189,0,0,1,209.812,197.516Zm-17.484,0a5.188,5.188,0,1,1,5.188,5.188A5.189,5.189,0,0,1,192.327,197.516Zm-17.484,0a5.188,5.188,0,1,1,5.188,5.188A5.188,5.188,0,0,1,174.843,197.516Zm-17.484,0a5.188,5.188,0,1,1,5.188,5.188A5.188,5.188,0,0,1,157.359,197.516Zm-17.484,0a5.188,5.188,0,1,1,5.188,5.188A5.188,5.188,0,0,1,139.875,197.516Zm-17.484,0a5.188,5.188,0,1,1,5.188,5.188A5.188,5.188,0,0,1,122.39,197.516Zm-17.484,0a5.188,5.188,0,1,1,5.188,5.188A5.188,5.188,0,0,1,104.906,197.516Zm-17.484,0A5.188,5.188,0,1,1,92.61,202.7,5.188,5.188,0,0,1,87.422,197.516Zm-17.484,0a5.188,5.188,0,1,1,5.188,5.188A5.188,5.188,0,0,1,69.937,197.516Zm-17.484,0a5.188,5.188,0,1,1,5.188,5.188A5.188,5.188,0,0,1,52.453,197.516Zm-17.484,0a5.188,5.188,0,1,1,5.188,5.188A5.188,5.188,0,0,1,34.969,197.516Zm-17.484,0a5.188,5.188,0,1,1,5.188,5.188A5.188,5.188,0,0,1,17.484,197.516ZM0,197.516A5.188,5.188,0,1,1,5.188,202.7,5.188,5.188,0,0,1,0,197.516Zm419.624-17.484a5.188,5.188,0,1,1,5.188,5.188A5.188,5.188,0,0,1,419.624,180.032Zm-17.484,0a5.188,5.188,0,1,1,5.188,5.188A5.188,5.188,0,0,1,402.139,180.032Zm-17.484,0a5.188,5.188,0,1,1,5.188,5.188A5.188,5.188,0,0,1,384.655,180.032Zm-17.484,0a5.188,5.188,0,1,1,5.188,5.188A5.188,5.188,0,0,1,367.171,180.032Zm-17.484,0a5.188,5.188,0,1,1,5.188,5.188A5.188,5.188,0,0,1,349.686,180.032Zm-17.484,0a5.188,5.188,0,1,1,5.188,5.188A5.188,5.188,0,0,1,332.2,180.032Zm-17.484,0a5.188,5.188,0,1,1,5.188,5.188A5.188,5.188,0,0,1,314.718,180.032Zm-17.484,0a5.188,5.188,0,1,1,5.188,5.188A5.188,5.188,0,0,1,297.233,180.032Zm-17.484,0a5.188,5.188,0,1,1,5.188,5.188A5.188,5.188,0,0,1,279.749,180.032Zm-17.484,0a5.188,5.188,0,1,1,5.189,5.188A5.188,5.188,0,0,1,262.265,180.032Zm-17.484,0a5.188,5.188,0,1,1,5.188,5.188A5.188,5.188,0,0,1,244.78,180.032Zm-17.484,0a5.188,5.188,0,1,1,5.188,5.188A5.188,5.188,0,0,1,227.3,180.032Zm-17.484,0A5.188,5.188,0,1,1,215,185.22,5.188,5.188,0,0,1,209.812,180.032Zm-17.484,0a5.188,5.188,0,1,1,5.188,5.188A5.188,5.188,0,0,1,192.327,180.032Zm-17.484,0a5.188,5.188,0,1,1,5.188,5.188A5.188,5.188,0,0,1,174.843,180.032Zm-17.484,0a5.188,5.188,0,1,1,5.188,5.188A5.188,5.188,0,0,1,157.359,180.032Zm-17.484,0a5.188,5.188,0,1,1,5.188,5.188A5.188,5.188,0,0,1,139.875,180.032Zm-17.484,0a5.188,5.188,0,1,1,5.188,5.188A5.188,5.188,0,0,1,122.39,180.032Zm-17.484,0a5.188,5.188,0,1,1,5.188,5.188A5.188,5.188,0,0,1,104.906,180.032Zm-17.484,0a5.188,5.188,0,1,1,5.188,5.188A5.188,5.188,0,0,1,87.422,180.032Zm-17.484,0a5.188,5.188,0,1,1,5.188,5.188A5.188,5.188,0,0,1,69.937,180.032Zm-17.484,0a5.188,5.188,0,1,1,5.188,5.188A5.188,5.188,0,0,1,52.453,180.032Zm-17.484,0a5.188,5.188,0,1,1,5.188,5.188A5.188,5.188,0,0,1,34.969,180.032Zm-17.484,0a5.188,5.188,0,1,1,5.188,5.188A5.188,5.188,0,0,1,17.484,180.032ZM0,180.032a5.188,5.188,0,1,1,5.188,5.188A5.188,5.188,0,0,1,0,180.032Zm419.624-17.484a5.188,5.188,0,1,1,5.188,5.188A5.188,5.188,0,0,1,419.624,162.547Zm-17.484,0a5.188,5.188,0,1,1,5.188,5.188A5.188,5.188,0,0,1,402.139,162.547Zm-17.484,0a5.188,5.188,0,1,1,5.188,5.188A5.188,5.188,0,0,1,384.655,162.547Zm-17.484,0a5.188,5.188,0,1,1,5.188,5.188A5.188,5.188,0,0,1,367.171,162.547Zm-17.484,0a5.188,5.188,0,1,1,5.188,5.188A5.188,5.188,0,0,1,349.686,162.547Zm-17.484,0a5.188,5.188,0,1,1,5.188,5.188A5.188,5.188,0,0,1,332.2,162.547Zm-17.484,0a5.188,5.188,0,1,1,5.188,5.188A5.188,5.188,0,0,1,314.718,162.547Zm-17.484,0a5.188,5.188,0,1,1,5.188,5.188A5.188,5.188,0,0,1,297.233,162.547Zm-17.484,0a5.188,5.188,0,1,1,5.188,5.188A5.188,5.188,0,0,1,279.749,162.547Zm-17.484,0a5.188,5.188,0,1,1,5.189,5.188A5.188,5.188,0,0,1,262.265,162.547Zm-17.484,0a5.188,5.188,0,1,1,5.188,5.188A5.188,5.188,0,0,1,244.78,162.547Zm-17.484,0a5.188,5.188,0,1,1,5.188,5.188A5.188,5.188,0,0,1,227.3,162.547Zm-17.484,0A5.188,5.188,0,1,1,215,167.736,5.188,5.188,0,0,1,209.812,162.547Zm-17.484,0a5.188,5.188,0,1,1,5.188,5.188A5.188,5.188,0,0,1,192.327,162.547Zm-17.484,0a5.188,5.188,0,1,1,5.188,5.188A5.188,5.188,0,0,1,174.843,162.547Zm-17.484,0a5.188,5.188,0,1,1,5.188,5.188A5.188,5.188,0,0,1,157.359,162.547Zm-17.484,0a5.188,5.188,0,1,1,5.188,5.188A5.188,5.188,0,0,1,139.875,162.547Zm-17.484,0a5.188,5.188,0,1,1,5.188,5.188A5.188,5.188,0,0,1,122.39,162.547Zm-17.484,0a5.188,5.188,0,1,1,5.188,5.188A5.188,5.188,0,0,1,104.906,162.547Zm-17.484,0a5.188,5.188,0,1,1,5.188,5.188A5.188,5.188,0,0,1,87.422,162.547Zm-17.484,0a5.188,5.188,0,1,1,5.188,5.188A5.188,5.188,0,0,1,69.937,162.547Zm-17.484,0a5.188,5.188,0,1,1,5.188,5.188A5.188,5.188,0,0,1,52.453,162.547Zm-17.484,0a5.188,5.188,0,1,1,5.188,5.188A5.188,5.188,0,0,1,34.969,162.547Zm-17.484,0a5.188,5.188,0,1,1,5.188,5.188A5.188,5.188,0,0,1,17.484,162.547ZM0,162.547a5.188,5.188,0,1,1,5.188,5.188A5.188,5.188,0,0,1,0,162.547Zm419.624-17.484a5.188,5.188,0,1,1,5.188,5.188A5.188,5.188,0,0,1,419.624,145.063Zm-17.484,0a5.188,5.188,0,1,1,5.188,5.188A5.188,5.188,0,0,1,402.139,145.063Zm-17.484,0a5.188,5.188,0,1,1,5.188,5.188A5.188,5.188,0,0,1,384.655,145.063Zm-17.484,0a5.188,5.188,0,1,1,5.188,5.188A5.188,5.188,0,0,1,367.171,145.063Zm-17.484,0a5.188,5.188,0,1,1,5.188,5.188A5.188,5.188,0,0,1,349.686,145.063Zm-17.484,0a5.188,5.188,0,1,1,5.188,5.188A5.188,5.188,0,0,1,332.2,145.063Zm-17.484,0a5.188,5.188,0,1,1,5.188,5.188A5.188,5.188,0,0,1,314.718,145.063Zm-17.484,0a5.188,5.188,0,1,1,5.188,5.188A5.188,5.188,0,0,1,297.233,145.063Zm-17.484,0a5.188,5.188,0,1,1,5.188,5.188A5.188,5.188,0,0,1,279.749,145.063Zm-17.484,0a5.188,5.188,0,1,1,5.189,5.188A5.188,5.188,0,0,1,262.265,145.063Zm-17.484,0a5.188,5.188,0,1,1,5.188,5.188A5.188,5.188,0,0,1,244.78,145.063Zm-17.484,0a5.188,5.188,0,1,1,5.188,5.188A5.188,5.188,0,0,1,227.3,145.063Zm-17.484,0A5.188,5.188,0,1,1,215,150.251,5.188,5.188,0,0,1,209.812,145.063Zm-17.484,0a5.188,5.188,0,1,1,5.188,5.188A5.188,5.188,0,0,1,192.327,145.063Zm-17.484,0a5.188,5.188,0,1,1,5.188,5.188A5.188,5.188,0,0,1,174.843,145.063Zm-17.484,0a5.188,5.188,0,1,1,5.188,5.188A5.188,5.188,0,0,1,157.359,145.063Zm-17.484,0a5.188,5.188,0,1,1,5.188,5.188A5.188,5.188,0,0,1,139.875,145.063Zm-17.484,0a5.188,5.188,0,1,1,5.188,5.188A5.188,5.188,0,0,1,122.39,145.063Zm-17.484,0a5.188,5.188,0,1,1,5.188,5.188A5.188,5.188,0,0,1,104.906,145.063Zm-17.484,0a5.188,5.188,0,1,1,5.188,5.188A5.188,5.188,0,0,1,87.422,145.063Zm-17.484,0a5.188,5.188,0,1,1,5.188,5.188A5.188,5.188,0,0,1,69.937,145.063Zm-17.484,0a5.188,5.188,0,1,1,5.188,5.188A5.188,5.188,0,0,1,52.453,145.063Zm-17.484,0a5.188,5.188,0,1,1,5.188,5.188A5.188,5.188,0,0,1,34.969,145.063Zm-17.484,0a5.188,5.188,0,1,1,5.188,5.188A5.188,5.188,0,0,1,17.484,145.063ZM0,145.063a5.188,5.188,0,1,1,5.188,5.188A5.188,5.188,0,0,1,0,145.063Zm419.624-17.484a5.188,5.188,0,1,1,5.188,5.188A5.188,5.188,0,0,1,419.624,127.579Zm-17.484,0a5.188,5.188,0,1,1,5.188,5.188A5.188,5.188,0,0,1,402.139,127.579Zm-17.484,0a5.188,5.188,0,1,1,5.188,5.188A5.188,5.188,0,0,1,384.655,127.579Zm-17.484,0a5.188,5.188,0,1,1,5.188,5.188A5.188,5.188,0,0,1,367.171,127.579Zm-17.484,0a5.188,5.188,0,1,1,5.188,5.188A5.188,5.188,0,0,1,349.686,127.579Zm-17.484,0a5.188,5.188,0,1,1,5.188,5.188A5.188,5.188,0,0,1,332.2,127.579Zm-17.484,0a5.188,5.188,0,1,1,5.188,5.188A5.188,5.188,0,0,1,314.718,127.579Zm-17.484,0a5.188,5.188,0,1,1,5.188,5.188A5.188,5.188,0,0,1,297.233,127.579Zm-17.484,0a5.188,5.188,0,1,1,5.188,5.188A5.188,5.188,0,0,1,279.749,127.579Zm-17.484,0a5.188,5.188,0,1,1,5.189,5.188A5.188,5.188,0,0,1,262.265,127.579Zm-17.484,0a5.188,5.188,0,1,1,5.188,5.188A5.188,5.188,0,0,1,244.78,127.579Zm-17.484,0a5.188,5.188,0,1,1,5.188,5.188A5.188,5.188,0,0,1,227.3,127.579Zm-17.484,0A5.188,5.188,0,1,1,215,132.767,5.188,5.188,0,0,1,209.812,127.579Zm-17.484,0a5.188,5.188,0,1,1,5.188,5.188A5.188,5.188,0,0,1,192.327,127.579Zm-17.484,0a5.188,5.188,0,1,1,5.188,5.188A5.188,5.188,0,0,1,174.843,127.579Zm-17.484,0a5.188,5.188,0,1,1,5.188,5.188A5.188,5.188,0,0,1,157.359,127.579Zm-17.484,0a5.188,5.188,0,1,1,5.188,5.188A5.188,5.188,0,0,1,139.875,127.579Zm-17.484,0a5.188,5.188,0,1,1,5.188,5.188A5.188,5.188,0,0,1,122.39,127.579Zm-17.484,0a5.188,5.188,0,1,1,5.188,5.188A5.188,5.188,0,0,1,104.906,127.579Zm-17.484,0a5.188,5.188,0,1,1,5.188,5.188A5.188,5.188,0,0,1,87.422,127.579Zm-17.484,0a5.188,5.188,0,1,1,5.188,5.188A5.188,5.188,0,0,1,69.937,127.579Zm-17.484,0a5.188,5.188,0,1,1,5.188,5.188A5.188,5.188,0,0,1,52.453,127.579Zm-17.484,0a5.188,5.188,0,1,1,5.188,5.188A5.188,5.188,0,0,1,34.969,127.579Zm-17.484,0a5.188,5.188,0,1,1,5.188,5.188A5.188,5.188,0,0,1,17.484,127.579ZM0,127.579a5.188,5.188,0,1,1,5.188,5.188A5.188,5.188,0,0,1,0,127.579Zm419.624-17.484a5.188,5.188,0,1,1,5.188,5.188A5.188,5.188,0,0,1,419.624,110.094Zm-17.484,0a5.188,5.188,0,1,1,5.188,5.188A5.188,5.188,0,0,1,402.139,110.094Zm-17.484,0a5.188,5.188,0,1,1,5.188,5.188A5.188,5.188,0,0,1,384.655,110.094Zm-17.484,0a5.188,5.188,0,1,1,5.188,5.188A5.188,5.188,0,0,1,367.171,110.094Zm-17.484,0a5.188,5.188,0,1,1,5.188,5.188A5.188,5.188,0,0,1,349.686,110.094Zm-17.484,0a5.188,5.188,0,1,1,5.188,5.188A5.188,5.188,0,0,1,332.2,110.094Zm-17.484,0a5.188,5.188,0,1,1,5.188,5.188A5.188,5.188,0,0,1,314.718,110.094Zm-17.484,0a5.188,5.188,0,1,1,5.188,5.188A5.188,5.188,0,0,1,297.233,110.094Zm-17.484,0a5.188,5.188,0,1,1,5.188,5.188A5.188,5.188,0,0,1,279.749,110.094Zm-17.484,0a5.188,5.188,0,1,1,5.189,5.188A5.188,5.188,0,0,1,262.265,110.094Zm-17.484,0a5.188,5.188,0,1,1,5.188,5.188A5.188,5.188,0,0,1,244.78,110.094Zm-17.484,0a5.188,5.188,0,1,1,5.188,5.188A5.188,5.188,0,0,1,227.3,110.094Zm-17.484,0A5.188,5.188,0,1,1,215,115.283,5.188,5.188,0,0,1,209.812,110.094Zm-17.484,0a5.188,5.188,0,1,1,5.188,5.188A5.188,5.188,0,0,1,192.327,110.094Zm-17.484,0a5.188,5.188,0,1,1,5.188,5.188A5.188,5.188,0,0,1,174.843,110.094Zm-17.484,0a5.188,5.188,0,1,1,5.188,5.188A5.188,5.188,0,0,1,157.359,110.094Zm-17.484,0a5.188,5.188,0,1,1,5.188,5.188A5.188,5.188,0,0,1,139.875,110.094Zm-17.484,0a5.188,5.188,0,1,1,5.188,5.188A5.188,5.188,0,0,1,122.39,110.094Zm-17.484,0a5.188,5.188,0,1,1,5.188,5.188A5.188,5.188,0,0,1,104.906,110.094Zm-17.484,0a5.188,5.188,0,1,1,5.188,5.188A5.188,5.188,0,0,1,87.422,110.094Zm-17.484,0a5.188,5.188,0,1,1,5.188,5.188A5.188,5.188,0,0,1,69.937,110.094Zm-17.484,0a5.188,5.188,0,1,1,5.188,5.188A5.188,5.188,0,0,1,52.453,110.094Zm-17.484,0a5.188,5.188,0,1,1,5.188,5.188A5.188,5.188,0,0,1,34.969,110.094Zm-17.484,0a5.188,5.188,0,1,1,5.188,5.188A5.188,5.188,0,0,1,17.484,110.094ZM0,110.094a5.188,5.188,0,1,1,5.188,5.188A5.188,5.188,0,0,1,0,110.094ZM419.624,92.61a5.188,5.188,0,1,1,5.188,5.188A5.188,5.188,0,0,1,419.624,92.61Zm-17.484,0a5.188,5.188,0,1,1,5.188,5.188A5.188,5.188,0,0,1,402.139,92.61Zm-17.484,0a5.188,5.188,0,1,1,5.188,5.188A5.188,5.188,0,0,1,384.655,92.61Zm-17.484,0a5.188,5.188,0,1,1,5.188,5.188A5.188,5.188,0,0,1,367.171,92.61Zm-17.484,0a5.188,5.188,0,1,1,5.188,5.188A5.188,5.188,0,0,1,349.686,92.61Zm-17.484,0a5.188,5.188,0,1,1,5.188,5.188A5.188,5.188,0,0,1,332.2,92.61Zm-17.484,0a5.188,5.188,0,1,1,5.188,5.188A5.188,5.188,0,0,1,314.718,92.61Zm-17.484,0a5.188,5.188,0,1,1,5.188,5.188A5.188,5.188,0,0,1,297.233,92.61Zm-17.484,0a5.188,5.188,0,1,1,5.188,5.188A5.188,5.188,0,0,1,279.749,92.61Zm-17.484,0a5.188,5.188,0,1,1,5.189,5.188A5.188,5.188,0,0,1,262.265,92.61Zm-17.484,0a5.188,5.188,0,1,1,5.188,5.188A5.188,5.188,0,0,1,244.78,92.61Zm-17.484,0a5.188,5.188,0,1,1,5.188,5.188A5.188,5.188,0,0,1,227.3,92.61Zm-17.484,0A5.188,5.188,0,1,1,215,97.8,5.188,5.188,0,0,1,209.812,92.61Zm-17.484,0a5.188,5.188,0,1,1,5.188,5.188A5.188,5.188,0,0,1,192.327,92.61Zm-17.484,0a5.188,5.188,0,1,1,5.188,5.188A5.188,5.188,0,0,1,174.843,92.61Zm-17.484,0a5.188,5.188,0,1,1,5.188,5.188A5.188,5.188,0,0,1,157.359,92.61Zm-17.484,0a5.188,5.188,0,1,1,5.188,5.188A5.188,5.188,0,0,1,139.875,92.61Zm-17.484,0a5.188,5.188,0,1,1,5.188,5.188A5.188,5.188,0,0,1,122.39,92.61Zm-17.484,0a5.188,5.188,0,1,1,5.188,5.188A5.188,5.188,0,0,1,104.906,92.61Zm-17.484,0A5.188,5.188,0,1,1,92.61,97.8,5.188,5.188,0,0,1,87.422,92.61Zm-17.484,0A5.188,5.188,0,1,1,75.126,97.8,5.188,5.188,0,0,1,69.937,92.61Zm-17.484,0A5.188,5.188,0,1,1,57.641,97.8,5.188,5.188,0,0,1,52.453,92.61Zm-17.484,0A5.188,5.188,0,1,1,40.157,97.8,5.188,5.188,0,0,1,34.969,92.61Zm-17.484,0A5.188,5.188,0,1,1,22.673,97.8,5.188,5.188,0,0,1,17.484,92.61ZM0,92.61A5.188,5.188,0,1,1,5.188,97.8,5.188,5.188,0,0,1,0,92.61ZM419.624,75.126a5.188,5.188,0,1,1,5.188,5.188A5.188,5.188,0,0,1,419.624,75.126Zm-17.484,0a5.188,5.188,0,1,1,5.188,5.188A5.188,5.188,0,0,1,402.139,75.126Zm-17.484,0a5.188,5.188,0,1,1,5.188,5.188A5.188,5.188,0,0,1,384.655,75.126Zm-17.484,0a5.188,5.188,0,1,1,5.188,5.188A5.188,5.188,0,0,1,367.171,75.126Zm-17.484,0a5.188,5.188,0,1,1,5.188,5.188A5.188,5.188,0,0,1,349.686,75.126Zm-17.484,0a5.188,5.188,0,1,1,5.188,5.188A5.188,5.188,0,0,1,332.2,75.126Zm-17.484,0a5.188,5.188,0,1,1,5.188,5.188A5.188,5.188,0,0,1,314.718,75.126Zm-17.484,0a5.188,5.188,0,1,1,5.188,5.188A5.188,5.188,0,0,1,297.233,75.126Zm-17.484,0a5.188,5.188,0,1,1,5.188,5.188A5.188,5.188,0,0,1,279.749,75.126Zm-17.484,0a5.188,5.188,0,1,1,5.189,5.188A5.188,5.188,0,0,1,262.265,75.126Zm-17.484,0a5.188,5.188,0,1,1,5.188,5.188A5.188,5.188,0,0,1,244.78,75.126Zm-17.484,0a5.188,5.188,0,1,1,5.188,5.188A5.188,5.188,0,0,1,227.3,75.126Zm-17.484,0A5.188,5.188,0,1,1,215,80.314,5.188,5.188,0,0,1,209.812,75.126Zm-17.484,0a5.188,5.188,0,1,1,5.188,5.188A5.188,5.188,0,0,1,192.327,75.126Zm-17.484,0a5.188,5.188,0,1,1,5.188,5.188A5.188,5.188,0,0,1,174.843,75.126Zm-17.484,0a5.188,5.188,0,1,1,5.188,5.188A5.188,5.188,0,0,1,157.359,75.126Zm-17.484,0a5.188,5.188,0,1,1,5.188,5.188A5.188,5.188,0,0,1,139.875,75.126Zm-17.484,0a5.188,5.188,0,1,1,5.188,5.188A5.188,5.188,0,0,1,122.39,75.126Zm-17.484,0a5.188,5.188,0,1,1,5.188,5.188A5.188,5.188,0,0,1,104.906,75.126Zm-17.484,0a5.188,5.188,0,1,1,5.188,5.188A5.188,5.188,0,0,1,87.422,75.126Zm-17.484,0a5.188,5.188,0,1,1,5.188,5.188A5.188,5.188,0,0,1,69.937,75.126Zm-17.484,0a5.188,5.188,0,1,1,5.188,5.188A5.188,5.188,0,0,1,52.453,75.126Zm-17.484,0a5.188,5.188,0,1,1,5.188,5.188A5.188,5.188,0,0,1,34.969,75.126Zm-17.484,0a5.188,5.188,0,1,1,5.188,5.188A5.188,5.188,0,0,1,17.484,75.126ZM0,75.126a5.188,5.188,0,1,1,5.188,5.188A5.188,5.188,0,0,1,0,75.126ZM419.624,57.641a5.188,5.188,0,1,1,5.188,5.188A5.188,5.188,0,0,1,419.624,57.641Zm-17.484,0a5.188,5.188,0,1,1,5.188,5.188A5.188,5.188,0,0,1,402.139,57.641Zm-17.484,0a5.188,5.188,0,1,1,5.188,5.188A5.188,5.188,0,0,1,384.655,57.641Zm-17.484,0a5.188,5.188,0,1,1,5.188,5.188A5.188,5.188,0,0,1,367.171,57.641Zm-17.484,0a5.188,5.188,0,1,1,5.188,5.188A5.188,5.188,0,0,1,349.686,57.641Zm-17.484,0a5.188,5.188,0,1,1,5.188,5.188A5.188,5.188,0,0,1,332.2,57.641Zm-17.484,0a5.188,5.188,0,1,1,5.188,5.188A5.188,5.188,0,0,1,314.718,57.641Zm-17.484,0a5.188,5.188,0,1,1,5.188,5.188A5.188,5.188,0,0,1,297.233,57.641Zm-17.484,0a5.188,5.188,0,1,1,5.188,5.188A5.188,5.188,0,0,1,279.749,57.641Zm-17.484,0a5.188,5.188,0,1,1,5.189,5.188A5.188,5.188,0,0,1,262.265,57.641Zm-17.484,0a5.188,5.188,0,1,1,5.188,5.188A5.188,5.188,0,0,1,244.78,57.641Zm-17.484,0a5.188,5.188,0,1,1,5.188,5.188A5.188,5.188,0,0,1,227.3,57.641Zm-17.484,0A5.188,5.188,0,1,1,215,62.83,5.188,5.188,0,0,1,209.812,57.641Zm-17.484,0a5.188,5.188,0,1,1,5.188,5.188A5.188,5.188,0,0,1,192.327,57.641Zm-17.484,0a5.188,5.188,0,1,1,5.188,5.188A5.188,5.188,0,0,1,174.843,57.641Zm-17.484,0a5.188,5.188,0,1,1,5.188,5.188A5.188,5.188,0,0,1,157.359,57.641Zm-17.484,0a5.188,5.188,0,1,1,5.188,5.188A5.188,5.188,0,0,1,139.875,57.641Zm-17.484,0a5.188,5.188,0,1,1,5.188,5.188A5.188,5.188,0,0,1,122.39,57.641Zm-17.484,0a5.188,5.188,0,1,1,5.188,5.188A5.188,5.188,0,0,1,104.906,57.641Zm-17.484,0A5.188,5.188,0,1,1,92.61,62.83,5.188,5.188,0,0,1,87.422,57.641Zm-17.484,0a5.188,5.188,0,1,1,5.188,5.188A5.188,5.188,0,0,1,69.937,57.641Zm-17.484,0a5.188,5.188,0,1,1,5.188,5.188A5.188,5.188,0,0,1,52.453,57.641Zm-17.484,0a5.188,5.188,0,1,1,5.188,5.188A5.188,5.188,0,0,1,34.969,57.641Zm-17.484,0a5.188,5.188,0,1,1,5.188,5.188A5.188,5.188,0,0,1,17.484,57.641ZM0,57.641A5.188,5.188,0,1,1,5.188,62.83,5.188,5.188,0,0,1,0,57.641ZM419.624,40.157a5.188,5.188,0,1,1,5.188,5.188A5.188,5.188,0,0,1,419.624,40.157Zm-17.484,0a5.188,5.188,0,1,1,5.188,5.188A5.188,5.188,0,0,1,402.139,40.157Zm-17.484,0a5.188,5.188,0,1,1,5.188,5.188A5.188,5.188,0,0,1,384.655,40.157Zm-17.484,0a5.188,5.188,0,1,1,5.188,5.188A5.188,5.188,0,0,1,367.171,40.157Zm-17.484,0a5.188,5.188,0,1,1,5.188,5.188A5.188,5.188,0,0,1,349.686,40.157Zm-17.484,0a5.188,5.188,0,1,1,5.188,5.188A5.188,5.188,0,0,1,332.2,40.157Zm-17.484,0a5.188,5.188,0,1,1,5.188,5.188A5.188,5.188,0,0,1,314.718,40.157Zm-17.484,0a5.188,5.188,0,1,1,5.188,5.188A5.188,5.188,0,0,1,297.233,40.157Zm-17.484,0a5.188,5.188,0,1,1,5.188,5.188A5.188,5.188,0,0,1,279.749,40.157Zm-17.484,0a5.188,5.188,0,1,1,5.189,5.188A5.188,5.188,0,0,1,262.265,40.157Zm-17.484,0a5.188,5.188,0,1,1,5.188,5.188A5.188,5.188,0,0,1,244.78,40.157Zm-17.484,0a5.188,5.188,0,1,1,5.188,5.188A5.188,5.188,0,0,1,227.3,40.157Zm-17.484,0A5.188,5.188,0,1,1,215,45.346,5.188,5.188,0,0,1,209.812,40.157Zm-17.484,0a5.188,5.188,0,1,1,5.188,5.188A5.188,5.188,0,0,1,192.327,40.157Zm-17.484,0a5.188,5.188,0,1,1,5.188,5.188A5.188,5.188,0,0,1,174.843,40.157Zm-17.484,0a5.188,5.188,0,1,1,5.188,5.188A5.188,5.188,0,0,1,157.359,40.157Zm-17.484,0a5.188,5.188,0,1,1,5.188,5.188A5.188,5.188,0,0,1,139.875,40.157Zm-17.484,0a5.188,5.188,0,1,1,5.188,5.188A5.188,5.188,0,0,1,122.39,40.157Zm-17.484,0a5.188,5.188,0,1,1,5.188,5.188A5.188,5.188,0,0,1,104.906,40.157Zm-17.484,0a5.188,5.188,0,1,1,5.188,5.188A5.188,5.188,0,0,1,87.422,40.157Zm-17.484,0a5.188,5.188,0,1,1,5.188,5.188A5.188,5.188,0,0,1,69.937,40.157Zm-17.484,0a5.188,5.188,0,1,1,5.188,5.188A5.188,5.188,0,0,1,52.453,40.157Zm-17.484,0a5.188,5.188,0,1,1,5.188,5.188A5.188,5.188,0,0,1,34.969,40.157Zm-17.484,0a5.188,5.188,0,1,1,5.188,5.188A5.188,5.188,0,0,1,17.484,40.157ZM0,40.157a5.188,5.188,0,1,1,5.188,5.188A5.188,5.188,0,0,1,0,40.157ZM419.624,22.673a5.188,5.188,0,1,1,5.188,5.188A5.188,5.188,0,0,1,419.624,22.673Zm-17.484,0a5.188,5.188,0,1,1,5.188,5.188A5.188,5.188,0,0,1,402.139,22.673Zm-17.484,0a5.188,5.188,0,1,1,5.188,5.188A5.188,5.188,0,0,1,384.655,22.673Zm-17.484,0a5.188,5.188,0,1,1,5.188,5.188A5.188,5.188,0,0,1,367.171,22.673Zm-17.484,0a5.188,5.188,0,1,1,5.188,5.188A5.188,5.188,0,0,1,349.686,22.673Zm-17.484,0a5.188,5.188,0,1,1,5.188,5.188A5.188,5.188,0,0,1,332.2,22.673Zm-17.484,0a5.188,5.188,0,1,1,5.188,5.188A5.188,5.188,0,0,1,314.718,22.673Zm-17.484,0a5.188,5.188,0,1,1,5.188,5.188A5.188,5.188,0,0,1,297.233,22.673Zm-17.484,0a5.188,5.188,0,1,1,5.188,5.188A5.188,5.188,0,0,1,279.749,22.673Zm-17.484,0a5.188,5.188,0,1,1,5.189,5.188A5.188,5.188,0,0,1,262.265,22.673Zm-17.484,0a5.188,5.188,0,1,1,5.188,5.188A5.188,5.188,0,0,1,244.78,22.673Zm-17.484,0a5.188,5.188,0,1,1,5.188,5.188A5.188,5.188,0,0,1,227.3,22.673Zm-17.484,0A5.188,5.188,0,1,1,215,27.861,5.188,5.188,0,0,1,209.812,22.673Zm-17.484,0a5.188,5.188,0,1,1,5.188,5.188A5.188,5.188,0,0,1,192.327,22.673Zm-17.484,0a5.188,5.188,0,1,1,5.188,5.188A5.188,5.188,0,0,1,174.843,22.673Zm-17.484,0a5.188,5.188,0,1,1,5.188,5.188A5.188,5.188,0,0,1,157.359,22.673Zm-17.484,0a5.188,5.188,0,1,1,5.188,5.188A5.188,5.188,0,0,1,139.875,22.673Zm-17.484,0a5.188,5.188,0,1,1,5.188,5.188A5.188,5.188,0,0,1,122.39,22.673Zm-17.484,0a5.188,5.188,0,1,1,5.188,5.188A5.188,5.188,0,0,1,104.906,22.673Zm-17.484,0a5.188,5.188,0,1,1,5.188,5.188A5.188,5.188,0,0,1,87.422,22.673Zm-17.484,0a5.188,5.188,0,1,1,5.188,5.188A5.188,5.188,0,0,1,69.937,22.673Zm-17.484,0a5.188,5.188,0,1,1,5.188,5.188A5.188,5.188,0,0,1,52.453,22.673Zm-17.484,0a5.188,5.188,0,1,1,5.188,5.188A5.188,5.188,0,0,1,34.969,22.673Zm-17.484,0a5.188,5.188,0,1,1,5.188,5.188A5.188,5.188,0,0,1,17.484,22.673ZM0,22.673a5.188,5.188,0,1,1,5.188,5.188A5.188,5.188,0,0,1,0,22.673ZM419.624,5.188a5.188,5.188,0,1,1,5.188,5.188A5.188,5.188,0,0,1,419.624,5.188Zm-17.484,0a5.188,5.188,0,1,1,5.188,5.188A5.188,5.188,0,0,1,402.139,5.188Zm-17.484,0a5.188,5.188,0,1,1,5.188,5.188A5.188,5.188,0,0,1,384.655,5.188Zm-17.484,0a5.188,5.188,0,1,1,5.188,5.188A5.188,5.188,0,0,1,367.171,5.188Zm-17.484,0a5.188,5.188,0,1,1,5.188,5.188A5.188,5.188,0,0,1,349.686,5.188Zm-17.484,0a5.188,5.188,0,1,1,5.188,5.188A5.188,5.188,0,0,1,332.2,5.188Zm-17.484,0a5.188,5.188,0,1,1,5.188,5.188A5.188,5.188,0,0,1,314.718,5.188Zm-17.484,0a5.188,5.188,0,1,1,5.188,5.188A5.188,5.188,0,0,1,297.233,5.188Zm-17.484,0a5.188,5.188,0,1,1,5.188,5.188A5.188,5.188,0,0,1,279.749,5.188Zm-17.484,0a5.188,5.188,0,1,1,5.189,5.188A5.188,5.188,0,0,1,262.265,5.188Zm-17.484,0a5.188,5.188,0,1,1,5.188,5.188A5.188,5.188,0,0,1,244.78,5.188Zm-17.484,0a5.188,5.188,0,1,1,5.188,5.188A5.188,5.188,0,0,1,227.3,5.188Zm-17.484,0A5.188,5.188,0,1,1,215,10.377,5.188,5.188,0,0,1,209.812,5.188Zm-17.484,0a5.188,5.188,0,1,1,5.188,5.188A5.188,5.188,0,0,1,192.327,5.188Zm-17.484,0a5.188,5.188,0,1,1,5.188,5.188A5.188,5.188,0,0,1,174.843,5.188Zm-17.484,0a5.188,5.188,0,1,1,5.188,5.188A5.188,5.188,0,0,1,157.359,5.188Zm-17.484,0a5.188,5.188,0,1,1,5.188,5.188A5.188,5.188,0,0,1,139.875,5.188Zm-17.484,0a5.188,5.188,0,1,1,5.188,5.188A5.188,5.188,0,0,1,122.39,5.188Zm-17.484,0a5.188,5.188,0,1,1,5.188,5.188A5.188,5.188,0,0,1,104.906,5.188Zm-17.484,0a5.188,5.188,0,1,1,5.188,5.188A5.188,5.188,0,0,1,87.422,5.188Zm-17.484,0a5.188,5.188,0,1,1,5.188,5.188A5.188,5.188,0,0,1,69.937,5.188Zm-17.484,0a5.188,5.188,0,1,1,5.188,5.188A5.188,5.188,0,0,1,52.453,5.188Zm-17.484,0a5.188,5.188,0,1,1,5.188,5.188A5.188,5.188,0,0,1,34.969,5.188Zm-17.484,0a5.188,5.188,0,1,1,5.188,5.188A5.188,5.188,0,0,1,17.484,5.188ZM0,5.188a5.188,5.188,0,1,1,5.188,5.188A5.188,5.188,0,0,1,0,5.188Z" fill="#5ab285" opacity="0.29"/></svg>